<svg width="469" height="177" viewBox="0 0 469 177" fill="none" xmlns="http://www.w3.org/2000/svg">
<circle cx="121.5" cy="115.688" r="28" fill="#74787B"/>
<circle cx="121.5" cy="115.688" r="18.2609" fill="url(#paint0_linear_354_429)"/>
<circle cx="342.5" cy="115.688" r="28" fill="#74787B"/>
<circle cx="342.5" cy="115.688" r="18.2609" fill="url(#paint1_linear_354_429)"/>
<path d="M61 117.188V121.188C68.6 128.788 82.8333 129.688 89 129.188C86.1857 113.188 88.6458 81.1875 121 81.1875C154.6 81.5875 157.333 112.688 154.5 128.188C172.5 125.387 265.333 127.021 309.5 128.188C308 125.688 303 79.6875 342 80.6875C373.2 81.4875 377.333 110.021 375.5 124.188C389.453 122.693 396.453 116.231 402.935 110.248L403 110.188C408.2 105.387 408.833 97.5208 408.5 94.1875L401 86.6875C401 85.1875 400.7 81.0875 399.5 76.6875C398.3 72.2875 393 65.8542 390.5 63.1875C393.3 61.5875 392.667 57.5208 392 55.6875C388.5 56.0208 379.3 56.6875 370.5 56.6875C361.7 56.6875 334.167 49.0208 321.5 45.1875L317 48.1875C316.2 46.9875 309 45.6875 305.5 45.1875C302.833 49.0208 297 57.5875 295 61.1875C293 64.7875 241.833 65.3542 216.5 65.1875V57.6875L213.5 56.6875V55.1875C217.833 52.0208 227.3 45.1875 230.5 43.1875C234.5 40.6875 238.5 38.6875 241.5 38.6875C243.9 38.6875 244.167 37.0211 244 36.1879C241.167 34.5212 233.7 31.6879 226.5 33.6879C216.5 36.0879 183.667 53.3546 168.5 61.6879C153.833 63.0212 121.9 66.2879 111.5 68.6879C98.5 71.6879 63 89.1879 62 91.6879C61 94.1879 63 103.188 64 109.188C64.8 113.988 62.3333 116.521 61 117.188Z" fill="#707678"/>
<path d="M214 58.1873C206.8 57.7873 201 59.6873 199 60.6873C206.5 67.1871 206 67.1875 211 67.1875C215 67.1875 214.667 61.1874 214 58.1873Z" fill="url(#paint2_linear_354_429)"/>
<path fill-rule="evenodd" clip-rule="evenodd" d="M64.9999 92.1877C64.4999 98.6877 65.6999 112.088 74.4999 113.688C83.2999 115.288 85.1666 114.354 84.9999 113.688C85.4999 102.021 93.2999 78.5877 120.5 78.1877C153.5 78.1877 162 109.188 160 119.688C185.833 112.188 250.7 98.1877 303.5 102.188C306 93.6877 317.1 76.6877 341.5 76.6877C372 76.6877 382 105.188 381.5 113.188C385.667 113.521 395 113.188 399 109.188C403 105.188 405.333 99.8543 406 97.6877C406.167 96.8543 406 94.9877 404 94.1877C401.5 93.1877 395.5 87.6877 392 83.1877C388.5 78.6877 381 74.1877 371.5 71.6877C374.5 68.8543 381.8 62.4877 387 59.6877C380.5 60.521 364.9 61.4877 354.5 58.6877C344.1 55.8877 330.833 52.1877 325.5 50.6877C324.333 50.521 321.7 50.6877 320.5 52.6877C319 55.1877 313 64.1876 299.5 66.6876C288.7 68.6876 280.333 69.521 277.5 69.6876C226.5 69.021 121.2 69.1876 108 75.1876C101.034 78.354 95.8504 81.8768 91.4709 84.8531C85.4769 88.9267 80.9892 91.9766 75.4999 91.6876C67.8999 91.2876 65.3332 91.8543 64.9999 92.1877ZM164 123.688C189.667 116.688 253.1 103.888 301.5 108.688C300.833 111.521 299.7 118.088 300.5 121.688L164 123.688Z" fill="url(#paint3_linear_354_429)"/>
<defs>
<linearGradient id="paint0_linear_354_429" x1="121.5" y1="97.4268" x2="121.5" y2="133.948" gradientUnits="userSpaceOnUse">
<stop stop-color="#454C4E"/>
<stop offset="1" stop-color="#74787B"/>
</linearGradient>
<linearGradient id="paint1_linear_354_429" x1="342.5" y1="97.4268" x2="342.5" y2="133.948" gradientUnits="userSpaceOnUse">
<stop stop-color="#454C4E"/>
<stop offset="1" stop-color="#74787B"/>
</linearGradient>
<linearGradient id="paint2_linear_354_429" x1="223" y1="39.1875" x2="212.137" y2="70.1237" gradientUnits="userSpaceOnUse">
<stop stop-color="#707678"/>
<stop offset="0.459403" stop-color="#F2F2F2"/>
<stop offset="1" stop-color="#707678"/>
</linearGradient>
<linearGradient id="paint3_linear_354_429" x1="235.5" y1="9.6875" x2="237.812" y2="134.593" gradientUnits="userSpaceOnUse">
<stop stop-color="#707678"/>
<stop offset="0.317708" stop-color="#F2F2F2"/>
<stop offset="1" stop-color="#707678"/>
</linearGradient>
</defs>
</svg>
