<svg width="469" height="177" viewBox="0 0 469 177" fill="none" xmlns="http://www.w3.org/2000/svg">
<circle cx="109.647" cy="127" r="29" fill="#74787B"/>
<circle cx="109.647" cy="127.001" r="18.913" fill="url(#paint0_linear_354_432)"/>
<circle cx="346.647" cy="127" r="29" fill="#74787B"/>
<circle cx="346.647" cy="127.001" r="18.913" fill="url(#paint1_linear_354_432)"/>
<path d="M48.6476 124.5C50.2476 134.9 68.6476 139.167 77.6476 140C75.6477 135 72.6475 94 109.647 94C139.247 94 142.647 122.667 140.647 137L314.147 135C312.314 121 316.047 93.2 345.647 94C375.247 94.8 380.314 121 379.147 134C381.147 134 388.747 133.2 403.147 130C417.547 126.8 421.147 108.333 421.147 99.5L414.647 90.5C413.981 84.5 412.447 70.5 411.647 62.5C410.847 54.5 397.314 39.1667 390.647 32.5L394.647 26C366.314 24.3333 304.247 21 282.647 21C255.647 21 227.147 22.5 212.147 24C200.147 25.2 195.147 28.5 194.147 30C161.747 40.8 129.981 59.1667 118.147 67C106.481 70.5 80.3475 78.8 69.1475 84C57.9475 89.2 53.4809 98.5 52.6476 102.5C49.6476 104 46.6476 111.5 48.6476 124.5Z" fill="#707678"/>
<path d="M237.647 28.9999C196.447 30.5999 150.481 56.3333 132.647 68.9999C153.047 65.3999 265.481 60.8333 319.147 59L310.647 27.9999C303.481 27.6666 278.847 27.3999 237.647 28.9999Z" fill="white"/>
<path d="M325.147 28.5C326.747 29.7 332.647 49.1658 335.647 58.4991H389.647C384.314 50.4991 373.047 33.9991 370.647 31.9991C367.647 29.4991 323.147 27 325.147 28.5Z" fill="white"/>
<path fill-rule="evenodd" clip-rule="evenodd" d="M65.1475 127H58.6475C56.1475 127 51.1475 125 51.1475 117C51.1475 107 53.1475 105 56.6475 104C59.4475 103.2 64.8141 103 67.1475 103C69.8141 96.5 80.6475 82.6 102.647 79C130.147 74.5 196.647 67.5 255.647 65.5C302.847 63.9 367.647 63.5 394.147 63.5C397.147 63.1666 403.247 64.5 403.647 72.5C404.147 82.5 405.147 90.5 409.647 94C413.247 96.8 416.814 99.8333 418.147 101C417.814 107 415.347 119.3 408.147 120.5C400.947 121.7 390.147 122.667 385.647 123C384.814 111.667 375.547 88.9 345.147 88.5C326.347 88.5 316.647 99.8333 314.147 105.5C270.147 106.667 175.247 112.8 147.647 128C147.481 114.833 139.347 88.7 108.147 89.5C76.9475 90.3 71.8141 114.833 73.1475 127H65.1475ZM155.147 131.5L305.147 128.5L307.647 117C267.314 116.5 180.347 118.7 155.147 131.5Z" fill="url(#paint2_linear_354_432)"/>
<defs>
<linearGradient id="paint0_linear_354_432" x1="109.647" y1="108.088" x2="109.647" y2="145.914" gradientUnits="userSpaceOnUse">
<stop stop-color="#454C4E"/>
<stop offset="1" stop-color="#74787B"/>
</linearGradient>
<linearGradient id="paint1_linear_354_432" x1="346.647" y1="108.088" x2="346.647" y2="145.914" gradientUnits="userSpaceOnUse">
<stop stop-color="#454C4E"/>
<stop offset="1" stop-color="#74787B"/>
</linearGradient>
<linearGradient id="paint2_linear_354_432" x1="227.647" y1="-4" x2="229.429" y2="141.688" gradientUnits="userSpaceOnUse">
<stop stop-color="#899296"/>
<stop offset="0.5" stop-color="#F2F2F2"/>
<stop offset="1" stop-color="#929AA1"/>
</linearGradient>
</defs>
</svg>
