<svg width="469" height="177" viewBox="0 0 469 177" fill="none" xmlns="http://www.w3.org/2000/svg">
<circle cx="125.99" cy="113" r="26" fill="#74787B"/>
<circle cx="125.99" cy="113" r="16.9565" fill="url(#paint0_linear_354_426)"/>
<circle cx="344.99" cy="113" r="26" fill="#74787B"/>
<circle cx="344.99" cy="113" r="16.9565" fill="url(#paint1_linear_354_426)"/>
<path d="M94.4902 129C80.8902 130.6 66.8235 124 61.4902 120.5C61.4902 118.501 64.4902 118 65.9902 117C67.4902 116 65.4902 113 63.4902 111.5C61.4902 110 57.9902 104 61.4902 97.5C64.2902 92.3 72.6569 88.3333 76.4902 87C78.1569 86 85.1902 82.2 99.9902 75C114.79 67.8 157.157 65.3333 176.49 65C179.49 63.1667 190.49 57.6 210.49 50C235.49 40.5 249.99 37 284.49 37C318.99 37 363.49 56 374.99 60C384.19 63.2 397.49 62 402.99 61C405.39 62.6 403.99 68.3333 402.99 71C406.99 74.6 405.99 88.5 404.99 95L409.49 98.5V102.5C409.49 118.9 387.49 126 376.49 127.5C380.49 111.667 379.79 79.7004 344.99 78.5004C310.19 77.3004 308.824 111.667 312.49 129C282.09 125.4 196.49 127.5 157.49 129C161.157 112.334 159.99 79.0004 125.99 79.0004C91.9902 79.0004 90.8235 112.334 94.4902 129Z" fill="#707678"/>
<path fill-rule="evenodd" clip-rule="evenodd" d="M89.9902 114C80.9902 113.833 62.9902 112 62.9902 106C62.9902 98.5 63.9902 95.5 66.9902 95.5C69.9902 95.5 81.9902 95.5 89.9902 89C91.2911 87.9431 92.5258 86.8729 93.746 85.8154C100.03 80.369 105.929 75.2561 118.49 74C130.49 72.8 150.157 72.1667 158.49 72C196.99 73 280.29 73.9 305.49 69.5C336.99 64 341.49 60.5 337.49 57C334.29 54.2 330.824 51.5 329.49 50.5C332.157 50.5 339.49 51.3 347.49 54.5C355.49 57.7 373.824 63.5 381.99 66L401.49 64.5C399.157 67.5 393.39 73.5 388.99 73.5C393.324 76.8333 402.09 86 402.49 96L407.49 100C408.49 106.667 405.09 120.1 383.49 120.5C383.99 104.333 376.19 72.3 340.99 73.5C319.121 74.2455 307.134 79.5611 293.977 85.3951C280.663 91.2989 266.151 97.7336 238.99 100.5C195.79 104.9 171.324 107.667 164.49 108.5C162.324 97.6667 151.49 76.1 125.49 76.5C99.4902 76.9 90.9902 101.667 89.9902 114ZM164.49 114V124.5C202.157 122.333 282.69 119.3 303.49 124.5C302.49 119.833 301.79 108 306.99 98C279.824 103.333 213.29 114 164.49 114Z" fill="url(#paint2_linear_354_426)"/>
<path d="M270.99 44.4996C242.99 44.0996 204.324 59.9996 188.49 67.9996C229.99 71.4992 293.49 67.9996 314.49 63C331.29 59.0003 327.157 55.0001 322.99 53.5C317.324 50.6665 298.99 44.8996 270.99 44.4996Z" fill="white"/>
<defs>
<linearGradient id="paint0_linear_354_426" x1="125.99" y1="96.0439" x2="125.99" y2="129.957" gradientUnits="userSpaceOnUse">
<stop stop-color="#454C4E"/>
<stop offset="1" stop-color="#74787B"/>
</linearGradient>
<linearGradient id="paint1_linear_354_426" x1="344.99" y1="96.0439" x2="344.99" y2="129.957" gradientUnits="userSpaceOnUse">
<stop stop-color="#454C4E"/>
<stop offset="1" stop-color="#74787B"/>
</linearGradient>
<linearGradient id="paint2_linear_354_426" x1="238.49" y1="31" x2="240.498" y2="135.503" gradientUnits="userSpaceOnUse">
<stop stop-color="#707678"/>
<stop offset="0.254862" stop-color="#F2F2F2"/>
<stop offset="1" stop-color="#707678"/>
</linearGradient>
</defs>
</svg>
