<svg width="469" height="177" viewBox="0 0 469 177" fill="none" xmlns="http://www.w3.org/2000/svg">
<circle cx="137.693" cy="120" r="23" fill="#74787B"/>
<circle cx="137.693" cy="120" r="15" fill="url(#paint0_linear_354_427)"/>
<circle cx="335.693" cy="120" r="23" fill="#74787B"/>
<circle cx="335.693" cy="120" r="15" fill="url(#paint1_linear_354_427)"/>
<path d="M94.6927 129L110.693 130C108.693 117.5 111.393 92.5 138.193 92.5C164.993 92.5 167.026 118.167 164.693 131L308.693 129.5C307.693 116.833 311.593 91.6 335.193 92C358.793 92.4 364.359 113.167 364.193 123.5C367.026 122.167 373.893 118 378.693 112C383.493 106 382.359 94.8333 381.193 90L374.193 84.5C374.026 82.1667 373.493 76.1 372.693 70.5C371.893 64.9 362.026 57.5 357.193 54.5L358.693 46C353.893 46 341.026 43.3333 335.193 42C317.193 36.4 285.693 33.6667 272.193 33C261.526 33 238.393 33.2 231.193 34C223.993 34.8 219.193 37.3333 217.693 38.5C199.293 42.5 169.693 57.1667 157.193 64L154.193 64.5C106.193 74 91.1926 86 91.1926 89.5C91.1926 93 89.6927 92.5 87.6927 95.5C85.6927 98.5 85.1927 107 87.6927 111.5C90.1927 116 90.1927 117.5 87.6927 120C85.6927 122 91.526 126.833 94.6927 129Z" fill="#707678"/>
<path d="M92.1927 113C86.9927 111 88.0261 101.167 89.1927 96.5C107.193 96.5 116.359 86.8333 118.693 82C137.693 76.5 305.693 67.5 317.193 67C326.393 66.6 333.693 55.1667 336.193 49.5C347.793 52.7 358.359 60.1667 362.193 63.5L349.193 65.5C335.593 67.9 363.859 84.8333 379.693 93V104.5L368.193 115.5C367.026 105.833 358.993 86.5 336.193 86.5C313.393 86.5 304.693 105.833 303.193 115.5C257.593 112.3 196.859 120.5 172.193 125C175.693 114.5 165.693 87.5 137.693 87.5C115.293 87.5 108.026 106.833 107.193 116.5C104.359 116.167 97.3927 115 92.1927 113Z" fill="url(#paint2_linear_354_427)"/>
<path d="M250.693 41C209.493 41.8 175.859 62 164.193 72L315.693 62C319.693 62 324.026 53.3333 325.693 49C320.093 48.2 312.359 45.3333 309.193 44C306.859 42.6666 291.893 40.2 250.693 41Z" fill="white"/>
<defs>
<linearGradient id="paint0_linear_354_427" x1="137.693" y1="105" x2="137.693" y2="135" gradientUnits="userSpaceOnUse">
<stop stop-color="#454C4E"/>
<stop offset="1" stop-color="#74787B"/>
</linearGradient>
<linearGradient id="paint1_linear_354_427" x1="335.693" y1="105" x2="335.693" y2="135" gradientUnits="userSpaceOnUse">
<stop stop-color="#454C4E"/>
<stop offset="1" stop-color="#74787B"/>
</linearGradient>
<linearGradient id="paint2_linear_354_427" x1="248.693" y1="12" x2="240.44" y2="135.367" gradientUnits="userSpaceOnUse">
<stop stop-color="#707678"/>
<stop offset="0.317708" stop-color="#F2F2F2"/>
<stop offset="1" stop-color="#707678"/>
</linearGradient>
</defs>
</svg>
