<svg width="469" height="177" viewBox="0 0 469 177" fill="none" xmlns="http://www.w3.org/2000/svg">
<path d="M64 102.719C64.4 128.719 86.8333 131.552 98 129.719C96 127.719 93 88.2188 127 88.2188C154.2 88.2188 158.667 114.885 157.5 128.219H310.5C309 114.885 312.6 88.2188 339 88.2188C365.4 88.2188 371.333 111.552 371 123.219C385.5 122.219 391.5 117.219 397.5 112.719C402.3 109.119 403.833 98.5521 404 93.7188L397.5 88.2188V77.7188C397.5 72.1188 395.167 65.7188 394 63.2188V55.7188C391.667 55.2188 385.2 54.3188 378 54.7188C370.8 55.1187 360.667 51.5521 356.5 49.7188C347.167 46.3854 324.7 38.8187 309.5 35.2188C290.5 30.7188 251 30.7188 230 31.2188C209 31.7188 151 61.2188 148.5 62.7188C146 64.2188 146 65.2188 132.5 66.2188C119 67.2188 85.5 78.2188 76.5 82.2188C69.3 85.4188 68.5 93.5521 69 97.2188L64 102.719Z" fill="#707678"/>
<path d="M67.5 111.219C69.5 121.619 84.3334 124.219 91.5 124.219C90.1667 111.052 95.3 84.4188 126.5 83.2188C157.7 82.0187 164.167 109.385 163.5 123.219C164.167 123.052 172.7 121.419 201.5 116.219C230.3 111.019 282.167 111.052 304.5 111.719C305.5 102.052 313.9 82.8187 339.5 83.2188C365.1 83.6188 374.5 102.385 376 111.719H383.5C397.1 111.719 401.5 101.052 402 95.7188C393.5 92.7188 384 79.2188 378.5 70.7188C374.1 63.9188 384.667 59.8854 390.5 58.7188V57.2188C387.7 58.8188 373.333 59.2188 366.5 59.2188C351.7 51.2188 323 43.5521 310.5 40.7188C317.5 44.2188 331.6 53.2188 332 61.2188C332.5 71.2188 175 73.7188 152.5 74.2188C134.5 74.6188 115.333 77.7188 108 79.2188C104.667 79.8854 97 82.7188 93 88.7188C89 94.7188 79 98.219 74.5 99.2192C71.3334 98.8858 65.5 100.819 67.5 111.219Z" fill="url(#paint0_linear_354_430)"/>
<path d="M240.5 38.7187C209.3 39.9187 172.833 60.2187 158.5 70.2187C194.5 70.2187 318 61.7188 324 61.7188C330 61.7188 327 54.7187 315 47.7187C303 40.7187 279.5 37.2187 240.5 38.7187Z" fill="white"/>
<circle cx="127" cy="119.219" r="26" fill="#74787B"/>
<circle cx="127" cy="119.219" r="16.9565" fill="url(#paint1_linear_354_430)"/>
<circle cx="341" cy="119.219" r="26" fill="#74787B"/>
<circle cx="341" cy="119.219" r="16.9565" fill="url(#paint2_linear_354_430)"/>
<defs>
<linearGradient id="paint0_linear_354_430" x1="243" y1="26.2187" x2="243.138" y2="136.362" gradientUnits="userSpaceOnUse">
<stop stop-color="#707678"/>
<stop offset="0.317708" stop-color="#F2F2F2"/>
<stop offset="1" stop-color="#707678"/>
</linearGradient>
<linearGradient id="paint1_linear_354_430" x1="127" y1="102.263" x2="127" y2="136.176" gradientUnits="userSpaceOnUse">
<stop stop-color="#454C4E"/>
<stop offset="1" stop-color="#74787B"/>
</linearGradient>
<linearGradient id="paint2_linear_354_430" x1="341" y1="102.263" x2="341" y2="136.176" gradientUnits="userSpaceOnUse">
<stop stop-color="#454C4E"/>
<stop offset="1" stop-color="#74787B"/>
</linearGradient>
</defs>
</svg>
