<svg width="469" height="177" viewBox="0 0 469 177" fill="none" xmlns="http://www.w3.org/2000/svg">
<circle cx="93.1283" cy="141.483" r="29.8026" fill="#74787B"/>
<circle cx="93.1284" cy="141.484" r="19.4365" fill="url(#paint0_linear_354_435)"/>
<circle cx="364.965" cy="141.483" r="29.8026" fill="#74787B"/>
<circle cx="364.964" cy="141.484" r="19.4365" fill="url(#paint1_linear_354_435)"/>
<path d="M41.1995 134.71C41.5607 143.38 53.0904 148.558 58.8101 150.063C57.606 135.162 62.6936 105.449 92.6768 105.81C122.66 106.172 128.049 134.559 126.995 148.708L331.549 147.353C330.195 142.838 329.292 104.004 366.319 104.456C395.941 104.817 401.239 131.399 400.186 144.644C404.701 144.343 414.997 143.109 420.054 140.58C426.376 137.419 427.279 128.388 427.279 122.97C427.279 118.635 426.677 117.25 426.376 117.099L421.86 112.584C422.161 102.8 422.763 81.6071 422.763 75.1047C422.763 68.6023 421.86 61.8591 421.409 59.3002C416.743 45.0011 406.959 15.3191 405.153 10.9841C403.347 6.6492 396.573 5.86651 393.412 6.01703C316.347 6.46858 160.229 7.462 152.282 7.82325C144.335 8.18449 136.026 15.4997 132.865 19.1121V22.7246C121.667 31.7557 101.407 55.6881 92.6768 66.5254C85.0004 69.5358 67.48 77.0015 58.8102 82.7814C50.1403 88.5613 47.3708 102.048 47.0698 108.068C44.541 109.152 42.1026 112.735 41.1995 114.39C41.0489 117.551 40.8382 126.04 41.1995 134.71Z" fill="#707678"/>
<path d="M322.518 64.2673L111.191 68.7828C131.782 34.1034 149.272 25.1325 155.443 24.982L315.745 23.1758L322.518 64.2673Z" fill="white"/>
<path d="M342.838 23.6276L350.515 63.816H409.668C407.561 55.9891 402.805 38.6193 400.637 31.7556C398.47 24.892 392.208 23.4771 389.348 23.6276H342.838Z" fill="white"/>
<path d="M46.6181 136.967L56.5523 142.837C53.3915 139.225 53.843 100.391 93.1283 100.391C124.557 100.391 133.618 126.28 134.22 139.225C222.002 118.273 300.543 115.443 328.84 116.647C331.85 110.326 343.29 97.682 364.964 97.682C396.754 97.682 405.002 121.464 405.153 133.355C416.442 132.452 423.215 127.033 423.667 122.066C424.028 118.092 417.495 114.389 414.184 113.035C414.334 103.703 414.726 83.3224 415.087 76.4588C415.448 69.5951 408.615 68.1803 405.153 68.3308C318.003 69.836 137.832 73.0269 114.351 73.7494C90.8705 74.4719 71.1526 84.5867 64.2288 89.5539C63.9277 90.457 62.9644 93.5275 61.5194 98.585C59.7132 104.907 52.9399 108.971 48.8759 110.777C45.6247 112.222 44.5109 115.594 44.3604 117.099V129.291C44.3604 135.793 45.8655 137.118 46.6181 136.967Z" fill="url(#paint2_linear_354_435)"/>
<defs>
<linearGradient id="paint0_linear_354_435" x1="93.1284" y1="122.048" x2="93.1284" y2="160.921" gradientUnits="userSpaceOnUse">
<stop stop-color="#454C4E"/>
<stop offset="1" stop-color="#74787B"/>
</linearGradient>
<linearGradient id="paint1_linear_354_435" x1="364.964" y1="122.048" x2="364.964" y2="160.921" gradientUnits="userSpaceOnUse">
<stop stop-color="#454C4E"/>
<stop offset="1" stop-color="#74787B"/>
</linearGradient>
<linearGradient id="paint2_linear_354_435" x1="234.013" y1="-7.07878" x2="230.364" y2="135.962" gradientUnits="userSpaceOnUse">
<stop stop-color="#899296"/>
<stop offset="0.5" stop-color="#F2F2F2"/>
<stop offset="1" stop-color="#929AA1"/>
</linearGradient>
</defs>
</svg>
