<svg width="469" height="177" viewBox="0 0 469 177" fill="none" xmlns="http://www.w3.org/2000/svg">
<circle cx="78.9417" cy="132" r="31" fill="#74787B"/>
<circle cx="78.9418" cy="132.001" r="20.2174" fill="url(#paint0_linear_354_410)"/>
<circle cx="359.942" cy="132" r="31" fill="#74787B"/>
<circle cx="359.942" cy="132.001" r="20.2174" fill="url(#paint1_linear_354_410)"/>
<path d="M21.4417 123C22.2417 131.8 34.7751 137.333 40.9417 139C39.9417 123.333 46.2416 92 79.4417 92C112.642 92 117.608 124 115.942 140H126.442L129.442 143.5H297.442L302.442 139H322.442C320.608 123.333 325.542 92.1 359.942 92.5C394.342 92.9 398.942 124 396.942 139.5C398.942 139.5 404.442 139.4 410.442 139C416.442 138.6 421.275 134.833 422.942 133C423.275 132.833 426.342 132.3 435.942 131.5C445.542 130.7 448.608 123.5 448.942 120V105.5H442.942C446.542 99.1 444.442 75.1667 442.942 64H304.942C301.342 64 298.442 68.6667 297.442 71C297.275 71.3333 296.942 71.1 296.942 67.5C296.942 63.9 298.942 61.3333 299.942 60.5C299.775 52.5 299.342 35.2 298.942 30C298.542 24.8 295.108 23.1667 293.442 23H282.442V18.5C285.942 18.6667 293.542 19 295.942 19C298.342 19 298.275 15.6667 297.942 14H199.942L185.942 23.5C183.142 23.5 175.775 24.5 172.442 25L170.442 28C160.042 30.4 128.442 51.6667 113.942 62C95.4417 65 55.9417 71.4 45.9417 73C35.9417 74.6 33.4417 78 33.4417 79.5L27.9417 99.5C24.3417 99.5 22.1084 103.833 21.4417 106C21.1084 108 20.6417 114.2 21.4417 123Z" fill="#707678"/>
<path fill-rule="evenodd" clip-rule="evenodd" d="M308.442 70.5002C299.642 70.9002 298.442 96.6668 298.942 109.5L317.942 118.5C320.108 107.667 331.642 86 360.442 86C394.042 86.8 403.775 113.667 404.442 127C413.775 126 433.142 123.2 435.942 120C438.742 116.8 441.775 100.333 442.942 92.5H438.942C433.742 92.5 432.442 77.8334 432.442 70.5002C394.775 70.3335 317.242 70.1002 308.442 70.5002ZM22.9417 123.5L34.4417 127.5C35.1083 114.167 44.9417 87 78.9417 85.0002C112.942 83.0004 124.442 114.5 125.942 130.5C129.775 129.5 145.642 126 178.442 120C211.242 114 267.442 109.833 291.442 108.5V75C240.608 76.8333 137.442 80.5 131.442 80.5C125.442 80.5 124.608 75.5002 124.942 73.0002C99.7417 70.6002 57.1083 77.3336 38.9417 81.0002L44.4417 85.0002C44.4417 90.1669 42.4417 100.8 34.4417 102C26.4417 103.2 23.4417 107.167 22.9417 109V123.5ZM130.442 135L131.942 140.5H296.942L301.942 133.5H316.942V128L298.942 120.5C258.775 120.334 168.842 123 130.442 135Z" fill="url(#paint2_linear_354_410)"/>
<path d="M205.442 72.5L135.942 74.5C132.442 74.6007 131.442 72.5 131.942 68.5C132.342 65.3 135.442 61.1667 136.942 59.5C142.775 55.6667 156.742 46.6 165.942 41C175.142 35.4 186.775 33 191.442 32.5H210.942C213.742 32.5 214.442 36.5 214.442 38.5C213.608 45 211.742 59.4 210.942 65C210.142 70.6 206.942 72.3333 205.442 72.5Z" fill="white"/>
<path d="M230.942 71.5C226.542 71.5 225.775 67.8333 225.942 66L227.932 44.5L228.442 39C228.849 34.6 231.611 32.5 232.942 32H270.942C276.542 32 278.275 36 278.442 38V62.5C278.442 68.1 274.775 69.8333 272.942 70C260.775 70.5 235.342 71.5 230.942 71.5Z" fill="white"/>
<defs>
<linearGradient id="paint0_linear_354_410" x1="78.9418" y1="111.783" x2="78.9418" y2="152.218" gradientUnits="userSpaceOnUse">
<stop stop-color="#454C4E"/>
<stop offset="1" stop-color="#74787B"/>
</linearGradient>
<linearGradient id="paint1_linear_354_410" x1="359.942" y1="111.783" x2="359.942" y2="152.218" gradientUnits="userSpaceOnUse">
<stop stop-color="#454C4E"/>
<stop offset="1" stop-color="#74787B"/>
</linearGradient>
<linearGradient id="paint2_linear_354_410" x1="227.442" y1="25" x2="229.662" y2="151.153" gradientUnits="userSpaceOnUse">
<stop stop-color="#707678"/>
<stop offset="0.317708" stop-color="#F2F2F2"/>
<stop offset="1" stop-color="#707678"/>
</linearGradient>
</defs>
</svg>
