<svg width="469" height="177" viewBox="0 0 469 177" fill="none" xmlns="http://www.w3.org/2000/svg">
<circle cx="99.3218" cy="119.467" r="26" fill="#74787B"/>
<circle cx="99.3218" cy="119.467" r="16.9565" fill="url(#paint0_linear_354_433)"/>
<circle cx="346.322" cy="119.467" r="26" fill="#74787B"/>
<circle cx="346.322" cy="119.467" r="16.9565" fill="url(#paint1_linear_354_433)"/>
<path d="M41.8218 127.467C45.4218 133.067 60.6552 134.467 67.8218 134.467C64.8218 118.633 66.8218 86.9668 98.8218 86.9668C130.822 86.9668 133.822 117.967 131.322 133.467C145.322 130.667 258.822 132.3 313.822 133.467C311.655 117.967 314.722 86.9668 344.322 86.9668C377.122 87.3668 380.322 116.133 377.822 130.467C406.822 127.467 414.822 121.467 420.822 117.967C425.622 115.167 427.155 104.133 427.322 98.9668C427.322 94.9668 423.655 92.3001 421.822 91.4668C423.022 85.8668 418.988 78.1335 416.822 74.9668L415.822 67.9668C415.322 64.4668 409.822 62.9668 396.822 63.4668C383.822 63.9668 357.322 50.4668 328.322 39.4668C299.322 28.4668 241.322 30.9668 225.322 31.9668C212.522 32.7668 206.322 35.9668 204.822 37.4668C186.022 41.0668 156.322 58.6335 143.822 66.9668C97.8218 67.9668 75.3218 77.4668 63.3218 80.4668C53.7218 82.8668 50.3218 87.8002 49.8218 89.9668C49.8218 91.9668 48.7219 96.7668 44.3218 99.9668C39.9218 103.167 40.8218 110.634 41.8218 113.967C43.8218 116.8 47.1218 122.667 44.3218 123.467C41.5218 124.267 41.4885 126.467 41.8218 127.467Z" fill="#707678"/>
<path d="M64.3218 121.967L47.3218 117.467C46.1551 116.467 43.8218 113.567 43.8218 109.967C43.8218 105.467 44.3218 101.967 50.3218 100.967C56.3218 99.9668 64.8218 96.4668 68.8218 91.4668C72.8218 86.4668 76.3218 83.4668 82.3218 82.4668C88.3218 81.4668 115.822 75.9668 128.322 75.9668C138.322 75.9668 319.822 70.9668 409.322 68.4668L400.822 73.9668C399.322 74.8001 397.122 77.2668 400.322 80.4668L413.322 93.4668L425.322 97.9668C425.822 103.467 424.322 115.167 414.322 117.967C404.322 120.767 389.822 121.8 383.822 121.967C383.488 121.967 382.722 121.367 382.322 118.967C381.822 115.967 381.822 82.9668 345.322 82.9668C316.122 82.9668 307.822 105.967 307.322 117.467C279.155 116.967 214.122 117.167 179.322 121.967C145.356 126.652 136.572 128.542 136.325 128.94C136.324 128.949 136.323 128.958 136.322 128.967C136.318 128.959 136.319 128.95 136.325 128.94C137.982 114.098 132.801 84.3666 98.8218 83.9668C87.3218 84.3001 64.3218 92.3668 64.3218 121.967Z" fill="url(#paint2_linear_354_433)"/>
<path d="M235.322 39.9669C204.922 41.1669 169.988 61.1336 156.322 70.9669L348.822 65.4669C316.322 36.4669 273.322 38.4669 235.322 39.9669Z" fill="white"/>
<defs>
<linearGradient id="paint0_linear_354_433" x1="99.3218" y1="102.511" x2="99.3218" y2="136.424" gradientUnits="userSpaceOnUse">
<stop stop-color="#454C4E"/>
<stop offset="1" stop-color="#74787B"/>
</linearGradient>
<linearGradient id="paint1_linear_354_433" x1="346.322" y1="102.511" x2="346.322" y2="136.424" gradientUnits="userSpaceOnUse">
<stop stop-color="#454C4E"/>
<stop offset="1" stop-color="#74787B"/>
</linearGradient>
<linearGradient id="paint2_linear_354_433" x1="234.437" y1="66.3847" x2="238.908" y2="138.743" gradientUnits="userSpaceOnUse">
<stop stop-color="#899296"/>
<stop offset="0.5" stop-color="#F2F2F2"/>
<stop offset="1" stop-color="#929AA1"/>
</linearGradient>
</defs>
</svg>
