<svg width="469" height="177" viewBox="0 0 469 177" fill="none" xmlns="http://www.w3.org/2000/svg">
<circle cx="128.204" cy="127" r="29" fill="#74787B"/>
<circle cx="128.204" cy="127.001" r="18.913" fill="url(#paint0_linear_354_431)"/>
<circle cx="344.204" cy="127" r="29" fill="#74787B"/>
<circle cx="344.204" cy="127.001" r="18.913" fill="url(#paint1_linear_354_431)"/>
<path d="M67.7037 126C69.7037 135.2 87.537 138.833 96.2037 139.5C93.037 123.833 94.9036 92.5 127.704 92.5C160.504 92.5 162.704 124.167 159.704 140C166.504 135.6 264.537 136.833 312.704 138C309.204 128 306.704 90.5 343.704 90.5C373.304 90.5 377.37 118.833 375.704 133C377.537 132.667 383.304 131 391.704 127C400.104 123 402.204 107 402.204 99.5C401.204 98 398.704 94.7 396.704 93.5C394.704 92.3 395.87 90 396.704 89L395.204 66.5L389.204 60.5L373.704 40C379.304 37.2 380.037 31.5 379.704 29C378.87 29.8333 371.704 30.6 349.704 27C327.704 23.4 294.87 21.5 281.204 21C265.037 21.8333 231.004 23.8 224.204 25C217.404 26.2 213.37 29.1667 212.204 30.5C187.404 38.5 162.87 54.8333 153.704 62C124.704 62 87.2036 76 81.2036 78.5C76.4036 80.5 73.8703 86.3333 73.2036 89L72.2036 96.5L66.2037 102.5C65.8704 106.5 65.7037 116.8 67.7037 126Z" fill="#707678"/>
<path d="M252.704 29.5005C214.704 31.1005 177.537 55.8338 163.704 68.0005C183.037 67.0003 230.004 64.4 263.204 62C304.704 59 345.204 54.5 353.704 53.5C360.504 52.7 350.87 43.167 345.204 38.5005C330.204 34.8338 290.704 27.9005 252.704 29.5005Z" fill="white"/>
<path fill-rule="evenodd" clip-rule="evenodd" d="M89.2036 132H78.2036L69.2036 124V105C69.2036 104 70.5036 101.8 75.7036 101C82.2036 100 93.2036 94 95.7036 91C95.7569 90.936 95.8132 90.8684 95.8723 90.7974C98.5867 87.5357 107.364 76.9893 114.704 76.5C120.704 76.1 261.87 66.3333 331.704 61.5C339.037 60.6667 354.804 59 359.204 59C363.604 59 376.037 60.6667 381.704 61.5C377.537 62.3333 369.204 64.5 369.204 66.5C369.204 69 370.704 77.5 383.204 87C393.204 94.6 398.704 99.5 400.204 101L398.204 117C397.704 118.833 395.204 122.5 389.204 122.5C383.204 122.5 381.704 117.833 381.704 115.5C379.537 105.5 368.904 85.4 343.704 85C318.504 84.6 308.87 100.167 307.204 108C281.37 107 217.404 109.5 168.204 127.5C167.87 114.333 159.404 88 128.204 88C97.0036 88 89.2036 117.333 89.2036 132ZM167.204 133.5C188.87 126.166 246.504 112.4 303.704 116V130.5C273.537 129.833 204.004 129.499 167.204 133.5Z" fill="url(#paint2_linear_354_431)"/>
<defs>
<linearGradient id="paint0_linear_354_431" x1="128.204" y1="108.088" x2="128.204" y2="145.914" gradientUnits="userSpaceOnUse">
<stop stop-color="#454C4E"/>
<stop offset="1" stop-color="#74787B"/>
</linearGradient>
<linearGradient id="paint1_linear_354_431" x1="344.204" y1="108.088" x2="344.204" y2="145.914" gradientUnits="userSpaceOnUse">
<stop stop-color="#454C4E"/>
<stop offset="1" stop-color="#74787B"/>
</linearGradient>
<linearGradient id="paint2_linear_354_431" x1="230.704" y1="-8.5" x2="235.109" y2="144.817" gradientUnits="userSpaceOnUse">
<stop stop-color="#899296"/>
<stop offset="0.5" stop-color="#F2F2F2"/>
<stop offset="1" stop-color="#929AA1"/>
</linearGradient>
</defs>
</svg>
