<svg width="469" height="177" viewBox="0 0 469 177" fill="none" xmlns="http://www.w3.org/2000/svg">
<path d="M53.6233 129L73.177 130C70.7328 117.5 74.0324 92.5 106.785 92.5C139.537 92.5 142.022 118.167 139.171 131L315.153 129.5C313.931 116.833 318.697 91.6 347.539 92C376.381 92.4 383.184 113.167 382.98 123.5C386.443 122.167 394.834 118 400.701 112C406.567 106 405.182 94.8333 403.756 90L395.201 84.5C394.997 82.1667 394.346 76.1 393.368 70.5C392.39 64.9 380.332 57.5 374.425 54.5L376.259 46C370.392 46 354.668 43.3333 347.539 42C325.541 36.4 287.045 33.6667 270.547 33C257.511 33 229.24 33.2 220.44 34C211.641 34.8 205.775 37.3333 203.942 38.5C181.455 42.5 145.281 57.1667 130.005 64L126.338 64.5C67.6775 74 49.3459 86 49.3459 89.5C49.3459 93 47.5128 92.5 45.0686 95.5C42.6245 98.5 42.0133 107 45.0686 111.5C48.1239 116 48.1239 117.5 45.0686 120C42.6244 122 49.7534 126.833 53.6233 129Z" fill="#707678"/>
<path d="M50.5681 113C44.2131 111 45.476 101.167 46.9018 96.5C68.8997 96.5 75.1022 86.8333 77.9536 82C101.174 76.5 311.487 67.5 325.541 67C336.784 66.6 345.706 55.1667 348.761 49.5C362.937 52.7 375.851 60.1667 380.536 63.5L364.648 65.5C348.028 67.9 382.573 84.8333 401.923 93V104.5L387.868 115.5C386.443 105.833 376.625 86.5 348.761 86.5C320.897 86.5 310.265 105.833 308.432 115.5C252.704 112.3 175.481 120.5 145.336 125C149.614 114.5 140.392 87.5 106.174 87.5C78.7985 87.5 69.9179 106.833 68.8995 116.5C65.4369 116.167 56.923 115 50.5681 113Z" fill="url(#paint0_linear_355_455)"/>
<path d="M244.271 41C193.921 41.8 152.817 62 138.56 72L323.708 62C328.597 62 333.892 53.3333 335.929 49C329.085 48.2 319.635 45.3333 315.765 44C312.913 42.6666 294.622 40.2 244.271 41Z" fill="white"/>
<circle cx="106" cy="125" r="28" fill="#74787B"/>
<circle cx="106" cy="125" r="18.2609" fill="url(#paint1_linear_355_455)"/>
<circle cx="349" cy="125" r="28" fill="#74787B"/>
<circle cx="349" cy="125" r="18.2609" fill="url(#paint2_linear_355_455)"/>
<defs>
<linearGradient id="paint0_linear_355_455" x1="241.827" y1="12" x2="235.064" y2="135.549" gradientUnits="userSpaceOnUse">
<stop stop-color="#707678"/>
<stop offset="0.317708" stop-color="#F2F2F2"/>
<stop offset="1" stop-color="#707678"/>
</linearGradient>
<linearGradient id="paint1_linear_355_455" x1="106" y1="106.739" x2="106" y2="143.261" gradientUnits="userSpaceOnUse">
<stop stop-color="#454C4E"/>
<stop offset="1" stop-color="#74787B"/>
</linearGradient>
<linearGradient id="paint2_linear_355_455" x1="349" y1="106.739" x2="349" y2="143.261" gradientUnits="userSpaceOnUse">
<stop stop-color="#454C4E"/>
<stop offset="1" stop-color="#74787B"/>
</linearGradient>
</defs>
</svg>
