<svg width="19" height="19" viewBox="0 0 19 19" fill="none" xmlns="http://www.w3.org/2000/svg">
<path d="M15.0664 6.67969H16.1797C17.1005 6.67969 17.8496 5.93056 17.8496 5.00977V1.66992C17.8496 0.749127 17.1005 0 16.1797 0H15.0664C14.1456 0 13.3965 0.749127 13.3965 1.66992V2.7832H11.0742C10.8444 2.13531 10.2257 1.66992 9.5 1.66992C8.77433 1.66992 8.1556 2.13531 7.92582 2.7832H5.60352V1.66992C5.60352 0.749127 4.85439 0 3.93359 0H2.82031C1.89952 0 1.15039 0.749127 1.15039 1.66992V5.00977C1.15039 5.93056 1.89952 6.67969 2.82031 6.67969H3.93359C4.85439 6.67969 5.60352 5.93056 5.60352 5.00977V3.89648H7.92582C8.09381 4.37015 8.4697 4.74603 8.94336 4.91402V8.98047C8.02256 8.98047 7.27344 9.7296 7.27344 10.6504V11.7637C7.27344 12.6845 8.02256 13.4336 8.94336 13.4336V15.1035H5.60352V13.9902C5.60352 13.0694 4.85439 12.3203 3.93359 12.3203H2.82031C1.89952 12.3203 1.15039 13.0694 1.15039 13.9902V17.3301C1.15039 18.2509 1.89952 19 2.82031 19H3.93359C4.85439 19 5.60352 18.2509 5.60352 17.3301V16.2168H13.3965V17.3301C13.3965 18.2509 14.1456 19 15.0664 19H16.1797C17.1005 19 17.8496 18.2509 17.8496 17.3301V13.9902C17.8496 13.0694 17.1005 12.3203 16.1797 12.3203H15.0664C14.1456 12.3203 13.3965 13.0694 13.3965 13.9902V15.1035H10.0566V13.4336C10.9774 13.4336 11.7266 12.6845 11.7266 11.7637V10.6504C11.7266 9.7296 10.9774 8.98047 10.0566 8.98047V4.91402C10.5303 4.74603 10.9062 4.37015 11.0742 3.89648H13.3965V5.00977C13.3965 5.93056 14.1456 6.67969 15.0664 6.67969ZM14.5098 1.66992C14.5098 1.36299 14.7595 1.11328 15.0664 1.11328H16.1797C16.4866 1.11328 16.7363 1.36299 16.7363 1.66992V5.00977C16.7363 5.3167 16.4866 5.56641 16.1797 5.56641H15.0664C14.7595 5.56641 14.5098 5.3167 14.5098 5.00977V1.66992ZM4.49023 5.00977C4.49023 5.3167 4.24053 5.56641 3.93359 5.56641H2.82031C2.51338 5.56641 2.26367 5.3167 2.26367 5.00977V1.66992C2.26367 1.36299 2.51338 1.11328 2.82031 1.11328H3.93359C4.24053 1.11328 4.49023 1.36299 4.49023 1.66992V5.00977ZM4.49023 17.3301C4.49023 17.637 4.24053 17.8867 3.93359 17.8867H2.82031C2.51338 17.8867 2.26367 17.637 2.26367 17.3301V13.9902C2.26367 13.6833 2.51338 13.4336 2.82031 13.4336H3.93359C4.24053 13.4336 4.49023 13.6833 4.49023 13.9902V17.3301ZM14.5098 13.9902C14.5098 13.6833 14.7595 13.4336 15.0664 13.4336H16.1797C16.4866 13.4336 16.7363 13.6833 16.7363 13.9902V17.3301C16.7363 17.637 16.4866 17.8867 16.1797 17.8867H15.0664C14.7595 17.8867 14.5098 17.637 14.5098 17.3301V13.9902ZM10.6133 10.6504V11.7637C10.6133 12.0706 10.3636 12.3203 10.0566 12.3203H8.94336C8.63643 12.3203 8.38672 12.0706 8.38672 11.7637V10.6504C8.38672 10.3435 8.63643 10.0938 8.94336 10.0938H10.0566C10.3636 10.0938 10.6133 10.3435 10.6133 10.6504ZM9.5 3.89648C9.19307 3.89648 8.94336 3.64678 8.94336 3.33984C8.94336 3.03291 9.19307 2.7832 9.5 2.7832C9.80693 2.7832 10.0566 3.03291 10.0566 3.33984C10.0566 3.64678 9.80693 3.89648 9.5 3.89648Z" fill="#303030"/>
</svg>
