<svg width="19" height="19" viewBox="0 0 19 19" fill="none" xmlns="http://www.w3.org/2000/svg">
<g clip-path="url(#clip0_69_164)">
<path d="M12.0977 6.82812H6.30859C5.77656 6.82812 5.34375 6.39528 5.34375 5.86328V3.04297C5.34375 2.51097 5.77656 2.07812 6.30859 2.07812H12.0977C12.6297 2.07812 13.0625 2.51097 13.0625 3.04297V5.86328C13.0625 6.39528 12.6297 6.82812 12.0977 6.82812ZM6.53125 5.64062H11.875V3.26562H6.53125V5.64062Z" fill="#303030"/>
<path d="M9.20312 14.5469C7.72985 14.5469 6.53125 13.3483 6.53125 11.875C6.53125 11.2671 6.90591 10.4327 7.67656 9.3244C8.20748 8.56087 8.73106 7.9508 8.75306 7.92519C8.86587 7.79412 9.0302 7.71875 9.20312 7.71875C9.37605 7.71875 9.54037 7.79412 9.65319 7.92519C9.67519 7.95076 10.1988 8.56087 10.7297 9.3244C11.5003 10.4327 11.875 11.2671 11.875 11.875C11.875 13.3483 10.6764 14.5469 9.20312 14.5469ZM9.20327 9.252C8.49411 10.165 7.71875 11.3576 7.71875 11.875C7.71875 12.6935 8.38464 13.3594 9.20312 13.3594C10.0216 13.3594 10.6875 12.6935 10.6875 11.875C10.6875 11.3566 9.91243 10.1644 9.20327 9.252Z" fill="#303030"/>
<path d="M16.9892 12.3095C17.5278 11.5688 17.8125 10.6934 17.8125 9.77761V4.75C17.8125 4.52508 17.6854 4.31949 17.4843 4.21893L15.4375 3.19553V1.70703C15.4375 0.765789 14.6717 0 13.7305 0H4.67578C3.73454 0 2.96875 0.765789 2.96875 1.70703V15.4375H2.15234C1.62031 15.4375 1.1875 15.8703 1.1875 16.4023V18.0352C1.1875 18.5672 1.62031 19 2.15234 19H16.2539C16.7859 19 17.2188 18.5672 17.2188 18.0352V16.4023C17.2188 15.8703 16.7859 15.4375 16.2539 15.4375H15.4375V14.4431L16.9892 12.3095ZM16.625 5.11697V9.77765C16.625 10.4408 16.4188 11.0748 16.0288 11.6111L15.4375 12.4241V4.52322L16.625 5.11697ZM16.0312 17.8125H2.375V16.625H3.5625H14.8438H16.0312V17.8125ZM4.15625 15.4375V1.70703C4.15625 1.42055 4.3893 1.1875 4.67578 1.1875H13.7305C14.017 1.1875 14.25 1.42055 14.25 1.70703V15.4375H4.15625Z" fill="#303030"/>
</g>
<defs>
<clipPath id="clip0_69_164">
<rect width="19" height="19" fill="white"/>
</clipPath>
</defs>
</svg>
