<svg width="19" height="19" viewBox="0 0 19 19" fill="none" xmlns="http://www.w3.org/2000/svg">
<g clip-path="url(#clip0_69_46)">
<path d="M12.8367 2.59324C11.9225 1.8814 10.8989 1.5246 9.79203 1.5246C6.72873 1.5246 4.10436 4.27603 3.99433 4.39453C3.89946 4.49472 3.84629 4.62638 3.84629 4.76376C3.84629 6.69598 2.96537 8.14539 2.969 8.14539C2.24805 9.22645 2.38632 10.0035 2.62631 10.4681C2.97981 11.1483 3.71996 11.4747 4.29119 11.4883C5.67743 11.4883 7.30512 9.13642 7.99534 8.02954C8.18806 8.18532 8.24122 8.34053 8.26188 8.4621C8.402 9.28179 7.3549 10.5928 6.76253 11.1111C2.67109 14.6989 2.81363 18.3334 2.82146 18.488C2.83469 18.7144 2.99054 18.9098 3.20892 18.9761C3.25837 18.9913 3.31153 19.0001 3.36106 19.0001C3.53095 19.0001 3.69286 18.9186 3.79684 18.7777C7.03843 14.3468 14.6982 13.0297 14.7748 13.0161C15.0409 12.9741 15.2333 12.7421 15.2283 12.4743C15.087 5.97003 14.8342 4.15139 12.8367 2.59324ZM4.1981 16.7032C4.58185 15.4527 5.4635 13.6815 7.47147 11.9218C8.0702 11.3975 9.56906 9.71838 9.32229 8.27922C9.24307 7.81544 8.95032 7.18557 7.99913 6.80618C7.9333 6.77955 7.86433 6.76697 7.79963 6.76697C7.61159 6.76697 7.42984 6.86426 7.33295 7.03528C6.39266 8.66426 4.94487 10.4098 4.28377 10.4098C4.11775 10.4043 3.74167 10.2718 3.58516 9.97273C3.39002 9.59834 3.62881 9.09746 3.87534 8.7313C3.91704 8.66555 4.85855 7.12902 4.92389 4.99093C5.47673 4.45592 7.55722 2.60284 9.79268 2.60284C10.6555 2.60284 11.4538 2.88785 12.1724 3.44633C13.6937 4.63267 13.9944 5.86886 14.1379 12.0388C12.5738 12.3566 7.49067 13.5899 4.1981 16.7032Z" fill="#303030"/>
<path d="M8.41767 1.22619C8.45518 1.22619 8.49205 1.22087 8.52843 1.2128C8.94292 1.126 9.352 1.08107 9.75511 1.08107C10.0535 1.08107 10.2904 0.838812 10.2904 0.540331C10.2904 0.242496 10.0421 0 9.74526 0C9.27891 0 8.79416 0.0526778 8.30764 0.156017C8.01496 0.21902 7.8274 0.506611 7.89146 0.796137C7.94341 1.0521 8.16824 1.22619 8.41767 1.22619Z" fill="#303030"/>
<path d="M10.9604 1.23105C11.3468 1.33132 11.7247 1.48371 12.0774 1.68143C12.1628 1.72894 12.2516 1.75 12.3409 1.75C12.5294 1.75 12.7136 1.64997 12.8132 1.47322C12.9587 1.21475 12.8653 0.885373 12.6043 0.740408C12.1724 0.495493 11.7086 0.311241 11.2287 0.186928C10.9395 0.10771 10.6465 0.284539 10.5722 0.571968C10.4958 0.861898 10.6698 1.15723 10.9604 1.23105Z" fill="#303030"/>
<path d="M13.9205 3.31862C14.0268 3.45278 14.1852 3.52377 14.345 3.52377C14.4623 3.52377 14.58 3.4869 14.6769 3.40768C14.912 3.22585 14.954 2.88607 14.7691 2.65172C14.4611 2.25893 14.1339 1.9056 13.7902 1.59719C13.5662 1.39463 13.2262 1.41052 13.0302 1.63648C12.8297 1.85582 12.8481 2.19803 13.0689 2.39849C13.3654 2.66495 13.6541 2.97319 13.9205 3.31862Z" fill="#303030"/>
<path d="M5.90673 2.19319C5.99676 2.19319 6.08275 2.17246 6.16681 2.12728C6.52096 1.93214 6.91124 1.74241 7.32468 1.58155C7.60146 1.47393 7.73755 1.15972 7.62921 0.882942C7.51845 0.603822 7.20746 0.461196 6.92883 0.577765C6.50708 0.741042 6.07437 0.944574 5.64584 1.18134C5.38479 1.32356 5.28993 1.65302 5.43247 1.91391C5.53242 2.09324 5.71667 2.19319 5.90673 2.19319Z" fill="#303030"/>
<path d="M3.70022 3.74795C3.83196 3.74795 3.96644 3.70028 4.06881 3.60041C4.07542 3.59799 4.45143 3.24449 5.07081 2.80935C5.31339 2.63785 5.37405 2.30323 5.20239 2.05839C5.02895 1.81315 4.69352 1.75741 4.44884 1.92666C3.76121 2.41173 3.34777 2.79854 3.32865 2.81436C3.11205 3.02031 3.10189 3.36041 3.30849 3.57879C3.41368 3.69044 3.558 3.74795 3.70022 3.74795Z" fill="#303030"/>
<path d="M16.5424 9.35689C16.5331 9.05607 16.2524 8.78276 15.989 8.82947C15.6897 8.8377 15.4521 9.08511 15.4614 9.38287C15.4724 9.79614 15.4793 10.2423 15.4854 10.7227C15.4879 11.0195 15.7304 11.2571 16.0256 11.2571C16.0291 11.2571 16.0291 11.2571 16.0317 11.2571C16.3297 11.2545 16.5696 11.0091 16.567 10.7123C16.5603 10.2256 16.5535 9.77388 16.5424 9.35689Z" fill="#303030"/>
<path d="M15.9438 8.56341C15.9548 8.56341 15.9648 8.56099 15.9784 8.56099C16.2771 8.54244 16.5005 8.28671 16.4817 7.98928C16.4497 7.46976 16.4119 7.01631 16.3618 6.61603C16.326 6.31859 16.0767 6.09925 15.7609 6.14451C15.4657 6.18089 15.255 6.45033 15.2915 6.74534C15.3365 7.1278 15.3769 7.55987 15.4088 8.05479C15.4217 8.34246 15.6593 8.56341 15.9438 8.56341Z" fill="#303030"/>
<path d="M15.7222 5.8779C16.0122 5.80417 16.1855 5.50851 16.1089 5.22165C15.9776 4.70213 15.8056 4.26457 15.5771 3.84283C15.4283 3.57871 15.1045 3.48449 14.8435 3.62945C14.5823 3.77208 14.4859 4.09888 14.6282 4.36235C14.8151 4.70213 14.9554 5.06079 15.065 5.49012C15.1254 5.73253 15.3462 5.89613 15.5861 5.89613C15.6333 5.8967 15.6776 5.88839 15.7222 5.8779Z" fill="#303030"/>
</g>
<defs>
<clipPath id="clip0_69_46">
<rect width="19" height="19" fill="white"/>
</clipPath>
</defs>
</svg>
