<?xml version="1.0" encoding="utf-8"?>
<!-- Generator: Adobe Illustrator 24.3.0, SVG Export Plug-In . SVG Version: 6.00 Build 0)  -->
<svg version="1.1" id="Слой_1" xmlns="http://www.w3.org/2000/svg" xmlns:xlink="http://www.w3.org/1999/xlink" x="0px" y="0px"
	 viewBox="0 0 150 111" style="enable-background:new 0 0 150 111;" xml:space="preserve">
<style type="text/css">
	.st0{fill:#FFFFFF;}
	.st1{fill-rule:evenodd;clip-rule:evenodd;fill:url(#in_sf_base_1_);}
	.st2{fill-rule:evenodd;clip-rule:evenodd;fill:url(#in_sf_base_2_);}
	.st3{fill-rule:evenodd;clip-rule:evenodd;fill:url(#SVGID_1_);}
	.st4{fill-rule:evenodd;clip-rule:evenodd;fill:url(#out_sf_base_1_);}
	.st5{opacity:0.74;fill-rule:evenodd;clip-rule:evenodd;fill:url(#SVGID_2_);}
	.st6{fill-rule:evenodd;clip-rule:evenodd;fill:url(#in_up_right_1_);}
	.st7{fill-rule:evenodd;clip-rule:evenodd;fill:url(#in_up_right_2_);}
	.st8{fill-rule:evenodd;clip-rule:evenodd;fill:url(#SVGID_3_);}
	.st9{opacity:0.9;fill-rule:evenodd;clip-rule:evenodd;fill:url(#SVGID_4_);}
	.st10{fill:#241D1E;}
	.st11{fill:#727172;}
	.st12{fill:#5C5B5B;}
	.st13{opacity:0.2;fill-rule:evenodd;clip-rule:evenodd;fill:url(#SVGID_5_);}
	.st14{opacity:0.2;fill-rule:evenodd;clip-rule:evenodd;fill:url(#SVGID_6_);fill-opacity:0.42;}
	.st15{opacity:0.5;fill:#C5C5C4;}
	.st16{fill:none;}
	.st17{fill-rule:evenodd;clip-rule:evenodd;fill:url(#SVGID_7_);}
	.st18{opacity:0.9;fill-rule:evenodd;clip-rule:evenodd;fill:url(#SVGID_8_);}
	.st19{fill:url(#wing_low_sf_1_);}
	.st20{fill-rule:evenodd;clip-rule:evenodd;fill:url(#SVGID_9_);}
	.st21{fill-rule:evenodd;clip-rule:evenodd;fill:url(#SVGID_10_);}
	.st22{fill-rule:evenodd;clip-rule:evenodd;fill:url(#SVGID_11_);}
	.st23{fill-rule:evenodd;clip-rule:evenodd;fill:url(#SVGID_12_);}
	.st24{fill-rule:evenodd;clip-rule:evenodd;fill:#454242;}
	.st25{fill:#C5C5C4;}
	.st26{fill:url(#SVGID_13_);fill-opacity:0.8;}
	.st27{fill:#454242;}
	.st28{fill-rule:evenodd;clip-rule:evenodd;fill:url(#SVGID_14_);}
	.st29{fill-rule:evenodd;clip-rule:evenodd;fill:#DADBDA;}
	.st30{fill-rule:evenodd;clip-rule:evenodd;fill:url(#SVGID_15_);}
	.st31{fill-rule:evenodd;clip-rule:evenodd;fill:url(#SVGID_16_);}
	.st32{fill-rule:evenodd;clip-rule:evenodd;fill:url(#SVGID_17_);}
	.st33{fill-rule:evenodd;clip-rule:evenodd;fill:url(#SVGID_18_);}
</style>
<g>
	<g>
		<path class="st0" d="M75,103.6c-19.8,0-36.1-4.5-45.8-12.7C19.7,83,14.8,71.2,14.3,55c-0.5-15,5.6-29.3,16.1-37.2
			c9.9-7.5,24-11.1,44.4-11.1c21,0,35.2,3.5,44.7,11.1c10.1,8.1,16.4,22.7,15.9,37.3c-0.5,16.2-5.3,27.6-15.1,35.7
			C110.2,99.1,94.2,103.6,75,103.6z M74.9,13.6c-5.6,0-10.9,0.5-15,1.3c-6.9,1.4-10.6,2.9-15.5,6.2c-12.8,8.6-15.5,22.9-15.5,33.4
			c0,16,5.3,27.6,15.9,34.6c6.5,4.3,15.8,6.2,30.2,6.2c13.4,0,21.6-1.7,29.2-6.2c7.6-4.4,16.6-13.9,16.6-34.7
			c0-15.3-5.2-26.5-15.4-33.3c-4.8-3.2-7.9-4.6-15.6-6.2C85.7,14.1,80.5,13.6,74.9,13.6L74.9,13.6z"/>
		<path class="st0" d="M75.1,77c-0.9,0-1.2-0.6-2.1-2.5c-0.4-0.9-1-2.2-1.8-3.9c-3.6-7.1-9.8-12.9-17.2-15.8
			c-2.1-0.8-4.9-1.7-7.7-2.5l0,0c-5.7-1.7-12.1-3.6-16.9-6.5l-0.2-3V35l5.2-3.5c0.3,0.2,2.8,1.8,6.4,3.4c1.6,0.7,3.4,1.5,5.2,2.3
			l0.1,0c6.1,2.7,13.1,5.8,15.9,7.8c4.7,3.4,9.1,8.3,12,13.6c0.4,0.8,0.8,1,1,1c0.2,0,0.5-0.2,1-1.1c2.9-5.8,8.2-11.1,12.1-13.7
			c3.7-2.6,10.1-5.1,15.7-7.4l0,0c2.6-1,5-2,6.9-2.9c2.9-1.3,4.8-2.6,5-2.8l4.9,3v7.9l-0.2,2.9c-3.3,1.9-5.3,3.1-13.3,5.1l-0.4,0.1
			c-14.7,3.7-24,10.4-27.8,19.7c-0.5,1.1-0.8,2.1-1.1,2.9l-0.1,0.2C76.7,75.9,76.3,77,75.1,77z"/>
	</g>
	<g>
		<linearGradient id="in_sf_base_1_" gradientUnits="userSpaceOnUse" x1="63.0293" y1="9.1565" x2="87.2776" y2="99.6523">
			<stop  offset="0.2121" style="stop-color:#241D1E"/>
			<stop  offset="0.3132" style="stop-color:#2E2829"/>
			<stop  offset="0.4928" style="stop-color:#4A4747"/>
			<stop  offset="0.5939" style="stop-color:#5C5B5B"/>
			<stop  offset="0.8036" style="stop-color:#B2B2B2"/>
			<stop  offset="1" style="stop-color:#FFFFFF"/>
		</linearGradient>
		<path id="in_sf_base_8_" class="st1" d="M61.1,94.7C48.4,92.9,28.8,86.2,28.8,54c0-18.4,8.2-40.5,46.2-40.5
			c34.2,0,45.9,18.4,45.9,40.4c0,30.3-17.6,38.3-32.1,40.6C81.8,95.7,69.4,95.8,61.1,94.7z M129.2,54.2c0-24.6-11.6-44.9-54.1-44.9
			C30.4,9.3,21,33.9,21,54.3c0,34,22.8,42.3,39.4,44.2c8.4,1,20.6,0.9,28.4,0C105.2,96.6,129.2,88.4,129.2,54.2z"/>
		<linearGradient id="in_sf_base_2_" gradientUnits="userSpaceOnUse" x1="63.0293" y1="9.1565" x2="87.2776" y2="99.6523">
			<stop  offset="0" style="stop-color:#241D1E"/>
			<stop  offset="0.5636" style="stop-color:#454242"/>
			<stop  offset="0.5685" style="stop-color:#464343"/>
			<stop  offset="0.6497" style="stop-color:#565555"/>
			<stop  offset="0.7091" style="stop-color:#5C5B5B"/>
			<stop  offset="0.8364" style="stop-color:#FFFFFF"/>
			<stop  offset="0.8909" style="stop-color:#FFFFFF"/>
			<stop  offset="1" style="stop-color:#9CA2AB"/>
		</linearGradient>
		<path id="in_sf_base_7_" class="st2" d="M61.1,94.7C48.4,92.9,28.8,86.2,28.8,54c0-18.4,8.2-40.5,46.2-40.5
			c34.2,0,45.9,18.4,45.9,40.4c0,30.3-17.6,38.3-32.1,40.6C81.8,95.7,69.4,95.8,61.1,94.7z M129.2,54.2c0-24.6-11.6-44.9-54.1-44.9
			C30.4,9.3,21,33.9,21,54.3c0,34,22.8,42.3,39.4,44.2c8.4,1,20.6,0.9,28.4,0C105.2,96.6,129.2,88.4,129.2,54.2z"/>
		
			<linearGradient id="SVGID_1_" gradientUnits="userSpaceOnUse" x1="291.9369" y1="6.6054" x2="315.4963" y2="94.5306" gradientTransform="matrix(-1 0 0 1 354.334 0)">
			<stop  offset="0" style="stop-color:#353131;stop-opacity:0"/>
			<stop  offset="0.6061" style="stop-color:#353131"/>
			<stop  offset="0.6414" style="stop-color:#383434"/>
			<stop  offset="0.6698" style="stop-color:#413E3E"/>
			<stop  offset="0.6957" style="stop-color:#514F4F"/>
			<stop  offset="0.7091" style="stop-color:#5C5B5B"/>
			<stop  offset="0.8667" style="stop-color:#EEEEEE"/>
			<stop  offset="1" style="stop-color:#DADBDA;stop-opacity:0"/>
		</linearGradient>
		<path class="st3" d="M75.2,10v3.1c-34.6,0.1-46.4,18.4-46.4,41.5c0,21.1,9.1,31.9,19.5,36.7c11.6,5.4,25.1,4.5,18.8,6.9
			c-1.5,0.6-2.8,1.6-8.4,0.9c-16.4-1.9-37.5-10-37.5-44.2C21.1,30.4,32.7,10.1,75.2,10z"/>
		<linearGradient id="out_sf_base_1_" gradientUnits="userSpaceOnUse" x1="92.3282" y1="103.428" x2="57.0043" y2="6.3763">
			<stop  offset="3.636360e-02" style="stop-color:#414040"/>
			<stop  offset="0.1939" style="stop-color:#454242"/>
			<stop  offset="0.3696" style="stop-color:#8C8A8A"/>
			<stop  offset="0.5396" style="stop-color:#CAC9C9"/>
			<stop  offset="0.663" style="stop-color:#F0F0F0"/>
			<stop  offset="0.7273" style="stop-color:#FFFFFF"/>
			<stop  offset="1" style="stop-color:#767D82"/>
		</linearGradient>
		<path id="out_sf_base_4_" class="st4" d="M135,55.2c0,13.1-4.4,26.6-14.9,35.3c-11,9.1-28.2,13-45.3,13
			c-18.4,0-34.2-3.5-46.2-13.5C19,82,14.4,67.7,14.4,55c0-13.8,4.4-28.4,16-37.2c10.6-8.1,29.5-11,44.3-11c17,0,33.5,2.8,44.5,11.6
			C129.9,26.9,135,41.7,135,55.2z M128.9,54.7c0-22.8-13.3-44.9-54.1-44.9c-44.7,0-54.1,24.6-54.1,45c0,34.7,23.7,42.6,40.4,44.3
			c9,1,18,1.1,27.8,0C98.8,98,128.9,91.4,128.9,54.7z"/>
		<linearGradient id="SVGID_2_" gradientUnits="userSpaceOnUse" x1="32.0812" y1="50.5381" x2="45.2388" y2="4.6522">
			<stop  offset="0" style="stop-color:#FFFFFF;stop-opacity:0"/>
			<stop  offset="0.4606" style="stop-color:#FFFFFF"/>
			<stop  offset="0.5388" style="stop-color:#F0F0F0;stop-opacity:0.8551"/>
			<stop  offset="1" style="stop-color:#9A9A9A;stop-opacity:0"/>
		</linearGradient>
		<path class="st5" d="M22,43.5c2.1-5.9,4.7-15.7,12.3-22.5c8.6-7.6,23.7-10.3,28.1-10.8c-1.7-1-2.6-1.2-5.2-2
			c-12.4,1.8-22.9,5.3-30.5,13.2c-7.5,7.9-10.7,17.8-11.7,24.4C17.7,44.7,18.7,44.5,22,43.5z"/>
		<linearGradient id="in_up_right_1_" gradientUnits="userSpaceOnUse" x1="38.7641" y1="18.6386" x2="111.1679" y2="18.6386">
			<stop  offset="0" style="stop-color:#241D1E"/>
			<stop  offset="4.560214e-02" style="stop-color:#383333;stop-opacity:0.9544"/>
			<stop  offset="0.1231" style="stop-color:#545151;stop-opacity:0.8769"/>
			<stop  offset="0.2047" style="stop-color:#6A6968;stop-opacity:0.7953"/>
			<stop  offset="0.2911" style="stop-color:#7A7A79;stop-opacity:0.7089"/>
			<stop  offset="0.3855" style="stop-color:#838483;stop-opacity:0.6145"/>
			<stop  offset="0.503" style="stop-color:#868786;stop-opacity:0.497"/>
			<stop  offset="1" style="stop-color:#241D1E"/>
		</linearGradient>
		<path id="in_up_right_8_" class="st6" d="M74.4,11.9c14.4,0,28.1,2.5,36.7,13.5C98,9.1,53.4,8.7,38.8,25.4
			C47.4,15.6,60,11.9,74.4,11.9z"/>
		
			<linearGradient id="in_up_right_2_" gradientUnits="userSpaceOnUse" x1="11.475" y1="-55.3119" x2="79.6394" y2="-55.3119" gradientTransform="matrix(-1 0 0 -1 121 36)">
			<stop  offset="0" style="stop-color:#241D1E"/>
			<stop  offset="0.2421" style="stop-color:#484344"/>
			<stop  offset="0.503" style="stop-color:#727172"/>
			<stop  offset="1" style="stop-color:#241D1E"/>
		</linearGradient>
		<path id="in_up_right_7_" class="st7" d="M75,96.9c-15.7,0-25-2-32.9-9.2c-1-0.9-0.9-0.8,0.2,0c2.3,1.6,5,3.4,8.1,4.6
			c7.2,2.7,16.3,3.5,24.6,3.5c8.4,0,15.6-0.9,22.1-2.9c4.7-1.5,8.3-4,11.5-6.5c1.2-0.9,1.3-0.8,0.2,0.1C100.2,93.9,90,96.9,75,96.9z
			"/>
		
			<linearGradient id="SVGID_3_" gradientUnits="userSpaceOnUse" x1="195.8713" y1="77.1441" x2="192.416" y2="86.6376" gradientTransform="matrix(-1 0 0 1 317 0)">
			<stop  offset="0.2364" style="stop-color:#241D1E;stop-opacity:0"/>
			<stop  offset="0.4424" style="stop-color:#241D1E"/>
			<stop  offset="0.6909" style="stop-color:#241D1E;stop-opacity:0.7394"/>
			<stop  offset="1" style="stop-color:#241D1E;stop-opacity:0"/>
		</linearGradient>
		<path class="st8" d="M130.6,76.1c0.8-1.7,0.7-1.6,1-2.6c0.1-0.5-0.1,0.3-0.4,0.9c-0.4,0.8-0.3,0.7-0.9,1.6c-0.6,0.9-0.8,1-2,1.7
			c-0.9,0.6-2.1,1-3.9,2c-0.5,0.3-0.7,0.4-1.7,1.7c-0.7,0.9-1.4,1.9-1.8,2.4c-1.2,1.4-4.4,3.9-6.1,5.5c-1.5,1.3-1,1.4,1.1,0.7
			c1.9-0.7,4.8-1.9,6.5-2.5c1.1-0.4,1.9-1.2,2.3-1.6C126.7,83.2,129.2,79.3,130.6,76.1z"/>
		
			<linearGradient id="SVGID_4_" gradientUnits="userSpaceOnUse" x1="61.4152" y1="3.587" x2="32.0459" y2="56.5707" gradientTransform="matrix(1 0 0 1 -11.166 0)">
			<stop  offset="0" style="stop-color:#FFFFFF;stop-opacity:0"/>
			<stop  offset="0.3697" style="stop-color:#FFFFFF"/>
			<stop  offset="1" style="stop-color:#9A9A9A;stop-opacity:0"/>
		</linearGradient>
		<path class="st9" d="M21,54.7c0-11,3.9-25.3,13.3-33.6c8.6-7.6,23.3-10.5,27.7-11c-1.7-1-2.6-1.2-5.2-2
			c-12.4,1.8-23,5.4-30.5,13.3c-8,8.4-11.8,22.3-12,31.5C16.5,53.6,18.1,54,21,54.7z"/>
		<path id="in_line_8_" class="st10" d="M74.9,13.7L74.9,13.7c5.5,0,10.8,0.5,14.9,1.3c7.7,1.6,10.8,3,15.6,6.2
			c10.2,6.8,15.4,18,15.4,33.3c0,20.8-9,30.3-16.6,34.7c-7.7,4.4-15.9,6.2-29.2,6.2c-14.4,0-23.7-1.9-30.2-6.2
			c-10.5-7-15.9-18.6-15.9-34.5c0-10.5,2.7-24.8,15.5-33.4c5-3.3,8.6-4.8,15.5-6.2C64,14.1,69.4,13.7,74.9,13.7z M74.9,13.5
			c-5.4,0-10.7,0.4-15,1.3c-6.9,1.4-10.6,2.9-15.6,6.2c-12.1,8.2-15.6,21.6-15.6,33.5c0,16.4,5.5,27.8,15.9,34.7
			c7.6,5,18.4,6.3,30.3,6.3c12.3,0,21-1.4,29.3-6.2c9.5-5.5,16.6-16.4,16.6-34.8c0-14.1-4.5-26.1-15.5-33.4c-4.9-3.3-8-4.7-15.6-6.2
			C85.6,13.9,80.3,13.5,74.9,13.5L74.9,13.5z"/>
		<path id="in_line_7_" class="st11" d="M74.9,13.5c5.4,0,10.7,0.4,14.9,1.3c7.6,1.6,10.7,2.9,15.6,6.2
			c10.9,7.3,15.5,19.3,15.5,33.4c0,18.5-7.1,29.3-16.6,34.8C96,94,87.3,95.4,75,95.4c-11.9,0-22.7-1.3-30.3-6.3
			c-10.4-6.9-15.9-18.3-15.9-34.7c0-11.9,3.4-25.3,15.6-33.5c5-3.4,8.7-4.8,15.6-6.2C64.2,13.9,69.5,13.5,74.9,13.5z M74.9,13.2
			L74.9,13.2c-5.6,0-10.9,0.5-15.1,1.3c-7,1.4-10.7,2.9-15.7,6.3c-13,8.7-15.7,23.2-15.7,33.7c0,16.1,5.4,27.8,16.1,34.9
			c6.6,4.4,16,6.3,30.4,6.3c13.4,0,21.7-1.7,29.4-6.2c7.7-4.4,16.8-14.1,16.8-35.1c0-15.4-5.2-26.7-15.6-33.6
			c-4.8-3.2-7.9-4.7-15.7-6.3C85.8,13.7,80.5,13.2,74.9,13.2L74.9,13.2z"/>
		<path id="outline_8_" class="st10" d="M74.7,6.8c17.7,0,33.8,2.5,44.6,11.1c10.8,8.6,16.3,23.8,15.9,37.2
			c-0.5,15.1-4.5,26.9-15.1,35.6c-11,9.1-28,12.8-45.2,12.8c-17.2,0-34.7-3.4-45.7-12.7C19.2,82.4,14.9,70,14.4,55
			c-0.5-14.7,5.3-29,16-37.1C42.2,8.8,59,6.8,74.7,6.8z M74.7,6.7c-20.4,0-34.5,3.5-44.4,11.1C19.9,25.7,13.7,40,14.2,55
			c0.6,16.2,5.4,28,14.9,35.9c9.7,8.2,26,12.7,45.8,12.7c19.2,0,35.3-4.6,45.3-12.8c9.8-8.1,14.6-19.5,15.1-35.7
			c0.4-14.6-5.8-29.2-15.9-37.3C109.9,10.2,95.7,6.7,74.7,6.7L74.7,6.7z"/>
		<path id="outline_7_" class="st12" d="M74.7,7.1c20.9,0,35,3.5,44.5,11.1c10,8,16.2,22.5,15.8,36.9c-0.5,16.1-5.2,27.4-15,35.4
			c-9.9,8.2-25.9,12.7-45,12.7c-19.7,0-35.9-4.5-45.5-12.6C20,82.7,15.2,71.1,14.6,55c-0.5-14.9,5.6-29,15.9-36.9
			C40.4,10.6,54.4,7.1,74.7,7.1z M74.7,6.8c-15.7,0-32.5,2-44.3,11C19.7,26,13.9,40.3,14.4,55c0.5,15,4.8,27.4,14.9,35.8
			c11,9.2,28.5,12.7,45.7,12.7c17.1,0,34.1-3.7,45.2-12.8c10.5-8.7,14.6-20.5,15.1-35.6c0.4-13.3-5.1-28.5-15.9-37.2
			C108.5,9.3,92.3,6.8,74.7,6.8L74.7,6.8z"/>
		<linearGradient id="SVGID_5_" gradientUnits="userSpaceOnUse" x1="105.9766" y1="19.5263" x2="123.3144" y2="19.5263">
			<stop  offset="0" style="stop-color:#241D1E"/>
			<stop  offset="8.962709e-02" style="stop-color:#241D1E;stop-opacity:0.9104"/>
			<stop  offset="1" style="stop-color:#241D1E;stop-opacity:0"/>
		</linearGradient>
		<path class="st13" d="M106,15.4c2.6,0.3,11.7,2.3,14.8,4.2c3,1.8,2.5,1.9,2.5,1.9l-5.5,2.1C117.8,23.6,113.9,19.3,106,15.4z"/>
		
			<linearGradient id="SVGID_6_" gradientUnits="userSpaceOnUse" x1="168.2727" y1="14.9273" x2="168.2727" y2="26.1509" gradientTransform="matrix(-1 0 0 1 202 0)">
			<stop  offset="0" style="stop-color:#241D1E"/>
			<stop  offset="1" style="stop-color:#241D1E;stop-opacity:0"/>
		</linearGradient>
		<path class="st14" d="M43.2,15.3c-5.5,1.3-12.8,3.2-15.7,5.1c-1.4,0.9-5.1,5.8-5.1,5.8l5.3-4.4c2.6-0.7,2.7-0.8,4.7-1.3
			c2.2-0.5,3.5-0.7,5.9-2.3C40.7,16.5,48.7,14,43.2,15.3z"/>
		<path class="st0" d="M75.1,100.2c-5.4,0-10.9-0.4-17.4-1.3c-13.9-1.8-37.1-10-37.1-44.3c0-20.2,9.7-35.3,26.6-41.4
			c7.3-2.6,16.7-4,27.9-4c20,0,34.4,4.9,43.7,15c7.1,7.6,10.5,17.5,10.5,30.4c0,32.4-21.3,42.1-39.2,44.5
			C84.7,99.8,80,100.2,75.1,100.2z M75,10.1c-11.1,0-20.3,1.3-27.6,3.9c-16.6,6-26.1,20.8-26.1,40.6c0,31.9,19.8,41.3,36.4,43.5
			c12.3,1.6,21.1,1.7,32.1,0.2c17.6-2.4,38.5-11.9,38.5-43.7c0-12.6-3.4-22.4-10.3-29.8C109,14.9,94.8,10.1,75,10.1z"/>
		<path class="st15" d="M75.1,100.3L75.1,100.3c-5.4,0-10.9-0.4-17.4-1.3C47.5,97.7,39.2,94.1,33,88.4c-8.4-7.7-12.6-19-12.6-33.8
			c0-20.3,9.7-35.4,26.7-41.5c7.4-2.7,16.7-4,27.9-4c20.1,0,34.4,4.9,43.8,15c7.1,7.6,10.5,17.6,10.5,30.5
			c0,32.5-21.4,42.3-39.4,44.7C84.7,100,80,100.3,75.1,100.3z M75,9.4c-11.1,0-20.5,1.3-27.8,4c-16.9,6.1-26.5,21.1-26.5,41.2
			c0,14.6,4.2,25.9,12.5,33.6c6.2,5.7,14.4,9.2,24.5,10.6c6.5,0.9,12,1.3,17.4,1.3l0,0c4.9,0,9.6-0.3,14.9-1
			c17.9-2.4,39.1-12.1,39.1-44.4c0-12.8-3.4-22.7-10.5-30.3C109.3,14.3,95,9.4,75,9.4z"/>
		<path class="st16" d="M75,10.1c-11.1,0-20.3,1.3-27.6,3.9c-16.6,6-26.1,20.8-26.1,40.6c0,31.9,19.8,41.3,36.4,43.5
			c6.5,0.9,12,1.3,17.3,1.3l0,0c4.9,0,9.6-0.3,14.8-1c17.6-2.4,38.5-11.9,38.5-43.7c0-12.6-3.4-22.4-10.3-29.8
			C109,14.9,94.8,10.1,75,10.1z"/>
		
			<linearGradient id="SVGID_7_" gradientUnits="userSpaceOnUse" x1="338.1185" y1="81.3259" x2="333.2239" y2="94.7737" gradientTransform="matrix(1 0 0 1 -299.0254 0)">
			<stop  offset="4.848480e-02" style="stop-color:#241D1E;stop-opacity:0"/>
			<stop  offset="0.158" style="stop-color:#373233;stop-opacity:0.5162"/>
			<stop  offset="0.2606" style="stop-color:#454242"/>
			<stop  offset="0.3466" style="stop-color:#403C3C;stop-opacity:0.9532"/>
			<stop  offset="0.4596" style="stop-color:#312C2C;stop-opacity:0.8918"/>
			<stop  offset="0.5333" style="stop-color:#241D1E;stop-opacity:0.8517"/>
			<stop  offset="0.5855" style="stop-color:#282122;stop-opacity:0.8232"/>
			<stop  offset="0.638" style="stop-color:#332D2E;stop-opacity:0.7946"/>
			<stop  offset="0.6906" style="stop-color:#454142;stop-opacity:0.766"/>
			<stop  offset="0.7394" style="stop-color:#5C5B5B;stop-opacity:0.7394"/>
			<stop  offset="0.7421" style="stop-color:#595858;stop-opacity:0.7317"/>
			<stop  offset="0.7648" style="stop-color:#464243;stop-opacity:0.6673"/>
			<stop  offset="0.7914" style="stop-color:#363132;stop-opacity:0.5919"/>
			<stop  offset="0.8245" style="stop-color:#2C2627;stop-opacity:0.4979"/>
			<stop  offset="0.871" style="stop-color:#261F20;stop-opacity:0.3661"/>
			<stop  offset="1" style="stop-color:#241D1E;stop-opacity:0"/>
		</linearGradient>
		<path class="st17" d="M18.6,74.5c0.4,0.8,0.7,1.9,2.1,2.6c1.1,0.5,2,0.9,3.1,1.3c1.8,0.7,3.1,3,4.3,4.6c1.1,1.5,4.7,4.8,6.5,6.3
			c2.7,2.2,7.6,5.1,11.4,6.7c0.3,0.1,10.6,4.4,9.4,5.4c-0.3,0.3-9.8-2.4-10.2-2.5c-8.1-2.5-16.7-7.4-22.4-15.6
			c-0.8-1.1-3.6-6.3-4.3-8.4C18.1,73.4,18.2,73.5,18.6,74.5z"/>
		
			<linearGradient id="SVGID_8_" gradientUnits="userSpaceOnUse" x1="53.4927" y1="47.1889" x2="65.6347" y2="4.8446" gradientTransform="matrix(-1 0 0 1 170 0)">
			<stop  offset="0" style="stop-color:#FFFFFF;stop-opacity:0"/>
			<stop  offset="0.1055" style="stop-color:#E3E3E3;stop-opacity:0.229"/>
			<stop  offset="0.3318" style="stop-color:#9D9C9D;stop-opacity:0.7203"/>
			<stop  offset="0.4606" style="stop-color:#727172"/>
			<stop  offset="0.4727" style="stop-color:#727172"/>
			<stop  offset="0.635" style="stop-color:#767576;stop-opacity:0.6923"/>
			<stop  offset="0.8041" style="stop-color:#828282;stop-opacity:0.3714"/>
			<stop  offset="0.976" style="stop-color:#979697;stop-opacity:4.554760e-02"/>
			<stop  offset="1" style="stop-color:#9A9A9A;stop-opacity:0"/>
		</linearGradient>
		<path class="st18" d="M127.8,43.6c-2.1-5.9-4.7-15.7-12.3-22.5c-8.6-7.6-23.7-10.3-28.1-10.8c1.7-1,2.6-1.2,5.2-2
			c12.4,1.8,23,5.4,30.5,13.3c6.3,6.6,9.1,14.4,10.5,20.7C131.4,42.9,130.7,42.9,127.8,43.6z"/>
		<linearGradient id="wing_low_sf_1_" gradientUnits="userSpaceOnUse" x1="28.0402" y1="58.1083" x2="122.7579" y2="58.1083">
			<stop  offset="0" style="stop-color:#241D1E"/>
			<stop  offset="6.287608e-02" style="stop-color:#433F3F"/>
			<stop  offset="0.134" style="stop-color:#605D5E"/>
			<stop  offset="0.209" style="stop-color:#767575"/>
			<stop  offset="0.2883" style="stop-color:#868686"/>
			<stop  offset="0.375" style="stop-color:#8F9090"/>
			<stop  offset="0.483" style="stop-color:#929393"/>
			<stop  offset="0.497" style="stop-color:#FFFFFF;stop-opacity:0.7679"/>
			<stop  offset="0.498" style="stop-color:#241D1E;stop-opacity:0.9"/>
			<stop  offset="0.5109" style="stop-color:#2C2627;stop-opacity:0.924"/>
			<stop  offset="0.5317" style="stop-color:#423E3F;stop-opacity:0.9631"/>
			<stop  offset="0.5515" style="stop-color:#5C5B5B"/>
			<stop  offset="0.5526" style="stop-color:#5D5C5C"/>
			<stop  offset="0.5619" style="stop-color:#646262"/>
			<stop  offset="0.5879" style="stop-color:#666464"/>
			<stop  offset="1" style="stop-color:#241D1E"/>
		</linearGradient>
		<path id="wing_low_sf_4_" class="st19" d="M92.1,47.2c-0.1,0-0.1,0-0.1,0.1c-2.9,1.4-16.7,16.6-17,16.9
			c-0.3,0.3-15.1-11.6-15.4-12.1c-0.3-0.5-25.4-9.5-25.4-9.5L28,42.1c0,0,0.4,1.6,2,3.8c6.3,4,18.8,6.7,25.3,9.3
			c7.8,3.2,13.3,10.3,16.2,15.4c1.9,3.4,2.3,6.4,3.6,6.4c1.3,0,2.1-3.2,3-5.2c4.4-10.2,9.8-16.3,28.8-21.1c11.7-3,13.4-5.4,13.4-5.4
			l2.5-5.9C122.8,39.3,95.7,45.7,92.1,47.2z"/>
		
			<linearGradient id="SVGID_9_" gradientUnits="userSpaceOnUse" x1="-134.3617" y1="55.9422" x2="-175.886" y2="47.8707" gradientTransform="matrix(-1 0 0 1 -105.2852 0)">
			<stop  offset="0" style="stop-color:#241D1E"/>
			<stop  offset="0.1356" style="stop-color:#2D2728"/>
			<stop  offset="0.7016" style="stop-color:#4F4D4D"/>
			<stop  offset="1" style="stop-color:#5C5B5B"/>
		</linearGradient>
		<path class="st20" d="M27.1,40.2c1,2.6,2.7,5.6,2.7,5.6s2.9,1.5,6.7,2.8c8.4,2.8,19.1,4.3,22.1,5.8c11,5.3,13.6,10.2,16.2,14.6
			c-1.1-2.9-2.1-5.5-6.1-10.5c-5.7-7.1-9.4-8.8-17.6-11.8c-2.8-1-6.8-2.6-11.5-4.4c-4.8-1.8-10.8-4.9-14.5-7.4
			C24.9,34.8,26.2,38.1,27.1,40.2z"/>
		<linearGradient id="SVGID_10_" gradientUnits="userSpaceOnUse" x1="74.9472" y1="46.5166" x2="125.7367" y2="46.5166">
			<stop  offset="0" style="stop-color:#241D1E"/>
			<stop  offset="2.548992e-02" style="stop-color:#413C3E"/>
			<stop  offset="6.100763e-02" style="stop-color:#626065"/>
			<stop  offset="0.1004" style="stop-color:#808087"/>
			<stop  offset="0.1434" style="stop-color:#999BA3"/>
			<stop  offset="0.1913" style="stop-color:#ADB1BA"/>
			<stop  offset="0.2461" style="stop-color:#BDC2CC"/>
			<stop  offset="0.312" style="stop-color:#C8CED9"/>
			<stop  offset="0.4004" style="stop-color:#CED5E0"/>
			<stop  offset="0.6061" style="stop-color:#D0D7E2"/>
			<stop  offset="0.8242" style="stop-color:#FFFFFF"/>
		</linearGradient>
		<path class="st21" d="M82,50.3c2.2-2.5,4-4.2,8.2-6.7c7.8-4.6,19.9-7.1,27.9-13.3c5.4-4.1,6.9-6.2,6.9-6.2s0.6,1.8,0.7,4.1
			c0,1.3,0.1,2.5,0,4c-0.2,1.3-0.5,2.5-0.5,2.5c-3.7,2.5-9,5.5-13.8,7.3c-4.8,1.8-9.4,3.4-12.2,4.4C86.7,50.9,81.4,58,77.3,65.2
			C75.4,68.6,75,69,75,69c0-0.1,0-7.9,0-9.1c0.1,0,0.2,0,0.8-1C76.8,57.1,79.2,53.5,82,50.3z"/>
		<linearGradient id="SVGID_11_" gradientUnits="userSpaceOnUse" x1="96.2377" y1="43.6149" x2="103.6917" y2="67.9958">
			<stop  offset="0" style="stop-color:#241D1E"/>
			<stop  offset="3.041890e-02" style="stop-color:#241D1E"/>
			<stop  offset="0.3394" style="stop-color:#241D1E"/>
			<stop  offset="0.358" style="stop-color:#292223"/>
			<stop  offset="0.496" style="stop-color:#494647"/>
			<stop  offset="0.5697" style="stop-color:#555454"/>
			<stop  offset="0.8061" style="stop-color:#241D1E"/>
		</linearGradient>
		<path class="st22" d="M124.8,34.9c-3.7,2.5-10.1,5.4-14.9,7.2c-4.8,1.8-7.6,2.6-10.4,3.6c-8,2.9-13,6-18.9,13.3
			c-4,4.9-4.6,7.6-5.5,9.8c0,1.3,0.1,7.9,0.1,7.9s0.4,0.1,0.8-0.4c0.1-0.2,0-2.3,0-3.9c0-1.3,0.1-1.6,0.8-2.9c0.5-1,1.1-2.1,1.5-2.7
			c3.3-5.2,9.6-9.1,15.8-12.1c5.4-2.6,13.5-4.3,18.9-6.1c3.7-1.2,7.2-3,7.2-3s1.4-2.1,2.4-4.7C123.4,38.7,124.8,34.9,124.8,34.9z"/>
		
			<linearGradient id="SVGID_12_" gradientUnits="userSpaceOnUse" x1="-180.2733" y1="46.3425" x2="-129.6085" y2="46.3425" gradientTransform="matrix(-1 0 0 1 -105.2852 0)">
			<stop  offset="0" style="stop-color:#241D1E"/>
			<stop  offset="4.257243e-02" style="stop-color:#423F42"/>
			<stop  offset="8.780635e-02" style="stop-color:#5B5C61"/>
			<stop  offset="0.132" style="stop-color:#6D7177"/>
			<stop  offset="0.1741" style="stop-color:#787E84"/>
			<stop  offset="0.2121" style="stop-color:#7C8289"/>
			<stop  offset="0.3041" style="stop-color:#9EA2A8"/>
			<stop  offset="0.4178" style="stop-color:#C1C4C7"/>
			<stop  offset="0.5335" style="stop-color:#DCDEE0"/>
			<stop  offset="0.6502" style="stop-color:#F0F0F1"/>
			<stop  offset="0.7685" style="stop-color:#FBFBFC"/>
			<stop  offset="0.8909" style="stop-color:#FFFFFF"/>
			<stop  offset="1" style="stop-color:#AFAFB0"/>
		</linearGradient>
		<path class="st23" d="M73.7,59c0.5,1,1,0.9,1.2,0.9c0,1.4,0,8.9,0,9c0,0-0.2-0.5-2-3.9c-7.5-13.4-14.6-15.9-21.4-18.5
			c-2.9-1.1-8.2-3.1-13-4.9c-4.8-1.8-10.3-4.9-14-7.4c-0.2-0.1,0.1-0.9-0.1-2.3c-0.2-1.5-0.1-3.1-0.1-4.3c0.1-2.3,0.5-4,0.5-4
			s2.5,3.6,8.2,7.2c3.5,2.2,7.8,4.5,11.9,6.2c5,2.1,10.2,4.4,14.5,6.9c4.2,2.5,6.4,4.6,8.6,7.1C70.9,54.4,72.7,57.1,73.7,59z"/>
		<path class="st24" d="M63.6,46.9c3.4,3.6,4.9,5.3,7.3,9.8c1.6,3.1,2,3.4,4,11.3l-0.5-7.8c0,0-2.8-4.4-4.6-6.7
			C68,51.3,65.6,48.6,63.6,46.9z"/>
		<path class="st10" d="M75.1,77c-0.9,0-1.2-0.6-2.1-2.5c-0.4-0.9-1-2.2-1.8-3.9c-3.6-7.1-9.8-12.9-17.1-15.8
			c-2-0.8-4.8-1.6-7.7-2.5c-5.7-1.7-12.1-3.6-17-6.5l0.1-0.2c4.8,2.9,11.2,4.8,16.9,6.5c2.9,0.9,5.7,1.7,7.7,2.5
			c7.4,3,13.7,8.8,17.3,15.9c0.9,1.7,1.4,3,1.9,3.9c0.9,2,1.1,2.4,1.8,2.4c1,0,1.4-1,2.2-3.2c0.3-0.8,0.7-1.9,1.1-3.1
			c2.5-6.1,7.3-11,14.3-14.8c5.6-3,11.1-4.4,13.7-5.1l0.4-0.1c8-2.1,10-3.2,13.3-5.1l0.1,0.2c-3.3,1.9-5.3,3.1-13.3,5.1l-0.4,0.1
			c-14.7,3.7-24,10.4-27.8,19.7c-0.5,1.2-0.8,2.2-1.1,3C76.7,75.9,76.3,77,75.1,77z"/>
		<path class="st11" d="M75.1,76.8c-0.9,0-1.1-0.6-2-2.5c-0.4-1-1-2.3-1.9-4c-3.6-7.1-9.8-12.9-17.2-15.8c-2-0.8-4.7-1.6-7.6-2.4
			c-5.7-1.6-12.2-3.5-17.2-6.6l0.1-0.1c4.9,3.1,11.4,4.9,17.1,6.6c2.9,0.8,5.6,1.6,7.6,2.4c7.4,3,13.7,8.8,17.2,15.9
			c0.9,1.8,1.5,3.1,1.9,4c0.8,1.9,1.1,2.4,1.9,2.4c1,0,1.4-1.1,2.2-3.2c0.3-0.9,0.7-2,1.2-3.2c2.5-6,7.2-11,14.2-14.8
			c5.6-3,11.1-4.4,13.7-5.1l0.4-0.1c8.1-2.1,10.3-3.3,13.6-5.1l0.1,0.1c-3.2,1.8-5.5,3.1-13.6,5.2l-0.4,0.1
			c-14.7,3.7-24,10.4-27.8,19.8c-0.5,1.3-0.9,2.3-1.2,3.2C76.7,75.7,76.3,76.8,75.1,76.8z"/>
		<path class="st0" d="M75,69c-0.2,0-0.3-0.1-0.4-0.2c0,0-1.7-3.9-5-8.7c-2.2-3.1-4.4-5.1-6.4-6.9L63,53.1
			c-1.9-1.7-4.1-3.4-10.8-5.9c-1.1-0.4-2.5-0.9-4.1-1.5c-3.5-1.3-7.9-2.9-10.1-3.8c-1.3-0.6-2.3-1-3.1-1.4
			c-3.4-1.5-4.1-1.7-10.2-5.6c-0.2-0.1-0.3-0.4-0.1-0.6c0.1-0.2,0.4-0.2,0.6-0.1c6,3.8,6.7,4.1,10,5.5c0.8,0.4,1.8,0.8,3.1,1.4
			c2.2,1,6.5,2.5,10,3.8c1.6,0.6,3.1,1.1,4.1,1.5c6.8,2.6,9.1,4.3,11,6.1l0.1,0.1c2,1.8,4.3,3.9,6.5,7c2.5,3.5,4.1,6.6,4.7,8
			c0.6-1.4,2.1-4.5,4.9-8.2c2.3-3.2,5.1-6.1,8-8.3c3.2-2.5,7-4,10.6-5.4c2.3-0.9,4.1-1.5,5.8-2.1c3.2-1.1,6-2.1,10.2-4
			c6.9-3.2,10.1-5.4,10.1-5.4c0.2-0.1,0.4-0.1,0.6,0.1c0.1,0.2,0.1,0.4-0.1,0.6c-0.1,0.1-3.2,2.2-10.2,5.5c-4.3,2-7.1,2.9-10.3,4.1
			c-1.8,0.6-3.6,1.2-5.8,2.1c-3.6,1.4-7.3,2.9-10.4,5.3c-2.8,2.2-5.5,5-7.8,8.1c-3.7,5-5.1,8.9-5.1,8.9C75.3,68.9,75.1,69,75,69
			C75,69,75,69,75,69z"/>
		<path class="st11" d="M74.9,60.2c-0.3,0-0.8-0.4-1.2-1.2c-2.9-5.2-7.3-10.1-11.9-13.5c-2.8-2-9.8-5.1-15.9-7.8
			c-1.8-0.8-3.6-1.6-5.2-2.3c-3.7-1.7-6.7-3.7-6.7-3.7l0.2-0.2c0,0,3,2,6.7,3.7c1.6,0.7,3.3,1.5,5.2,2.3c6.2,2.7,13.2,5.8,16,7.8
			c4.7,3.4,9.1,8.3,12,13.6c0.4,0.7,0.8,1,0.9,1c0.2,0,0.5-0.2,1-1.1c3-5.8,8.2-11.1,12.1-13.7c3.7-2.6,10.1-5.1,15.7-7.4
			c2.6-1,5-2,6.9-2.9c3-1.4,5.4-3,5.5-3.1l0.2,0.2c0,0-2.5,1.7-5.5,3.1c-1.9,0.9-4.3,1.8-6.9,2.9c-5.6,2.2-11.9,4.8-15.7,7.4
			C84.2,48,79,53.2,76.1,59C75.7,59.7,75.2,60.2,74.9,60.2z"/>
		<path class="st10" d="M74.9,59.9c-0.3,0-0.8-0.4-1.2-1.2c-2.9-5.2-7.3-10.1-11.9-13.5c-2.8-2-9.8-5.1-15.9-7.8
			c-1.8-0.8-3.6-1.6-5.2-2.3c-3.7-1.7-6.4-3.4-6.4-3.4l0.2-0.2c0,0,2.6,1.7,6.4,3.4c1.6,0.7,3.3,1.5,5.2,2.3
			c6.2,2.7,13.2,5.8,16,7.8c4.7,3.4,9.1,8.3,12,13.6c0.4,0.7,0.8,1,0.9,1c0.2,0,0.5-0.2,1-1.1c3-5.8,8.2-11.1,12.1-13.7
			c3.7-2.6,10.1-5.1,15.7-7.4c2.6-1,5.1-2,6.9-2.9c3-1.4,5-2.8,5-2.8l0.2,0.2c0,0-2,1.4-5,2.8c-1.9,0.9-4.3,1.8-6.9,2.9
			c-5.6,2.2-11.9,4.8-15.6,7.3c-3.9,2.7-9.1,7.9-12,13.6C75.7,59.5,75.2,59.9,74.9,59.9z"/>
		<polygon class="st0" points="75,67.5 74.9,60.2 75.1,60.2 		"/>
		<g>
			<path class="st0" d="M32.5,23.6c4-4.2,9-7.4,14.9-9.6c7.3-2.6,16.5-3.9,27.6-3.9c19.2,0,33.1,4.5,42.3,13.9c0,0,0.1,0.1,0.2,0.2
				c0.2-0.1,0.6-0.5,0.7-0.5c-0.1-0.1-0.2-0.2-0.2-0.2c-9.4-9.5-23.5-14.1-43-14.1c-11.2,0-20.5,1.3-27.9,4
				c-6.1,2.2-11.3,5.6-15.4,10c0,0-0.1,0,0,0.1c0,0,0.2,0.1,0.3,0.2c0.1,0.1,0.3,0.2,0.4,0.3C32.4,23.8,32.5,23.6,32.5,23.6z"/>
			<path class="st25" d="M117.6,24.3L117.6,24.3c-0.1-0.1-0.2-0.2-0.3-0.2c0,0,0,0,0,0c-9.2-9.3-23-13.8-42.2-13.8
				c-11,0-20.3,1.3-27.5,3.9c-5.8,2.1-10.8,5.3-14.9,9.5c-0.1,0.1-0.1,0.2-0.2,0.2l0,0l0,0c-0.1,0-0.2-0.1-0.3-0.2
				c0,0-0.1-0.1-0.1-0.1c0,0-0.1,0-0.1-0.1c-0.1-0.1-0.1-0.1-0.2-0.1l0,0l0-0.1c0-0.1,0.1-0.1,0.1-0.1c4.2-4.4,9.4-7.8,15.4-10
				c7.4-2.7,16.7-4,27.9-4c19.6,0,33.6,4.6,43.1,14.2c0,0,0,0,0,0c0.1,0,0.1,0.1,0.2,0.2l0.2,0.2l-0.3,0c0,0-0.2,0.1-0.3,0.2
				C117.9,24.1,117.7,24.2,117.6,24.3L117.6,24.3z M75,10c19.3,0,33.2,4.5,42.4,13.9l0,0c0,0,0.1,0.1,0.1,0.1c0.1,0,0.1-0.1,0.2-0.2
				c0.1-0.1,0.2-0.1,0.2-0.2c0,0,0,0-0.1-0.1c0,0,0,0-0.1,0C108.5,14,94.5,9.4,75,9.4c-11.1,0-20.5,1.3-27.8,4
				c-6,2.2-11.2,5.5-15.3,9.9c0,0,0,0,0,0c0,0,0.1,0.1,0.1,0.1c0,0,0.1,0.1,0.1,0.1c0.1,0,0.1,0.1,0.2,0.1c0,0,0,0,0,0
				c0,0,0,0,0-0.1c4.1-4.3,9.1-7.5,15-9.6C54.7,11.3,64,10,75,10z"/>
		</g>
		<path class="st0" d="M124.5,34.2c-0.7,0.4-3.8,2.5-10,5.3c-4.2,1.9-7,2.9-10.2,4c-1.8,0.6-3.6,1.2-5.8,2.1
			c-3.6,1.4-7.4,2.9-10.6,5.4c-2.9,2.2-5.6,5.1-8,8.3c-2.7,3.7-4.2,6.8-4.9,8.2c-0.7-1.4-2.3-4.5-4.7-8c-2.2-3.1-4.5-5.2-6.5-7
			l-0.1-0.1c-1.9-1.7-4.2-3.5-11-6.1c-1.1-0.4-2.5-0.9-4.1-1.5c-3.5-1.3-7.9-2.8-10-3.8c-1.3-0.6-2.3-1-3.1-1.4
			c-3.4-1.4-4-1.7-9.8-5.4c-0.6-0.4-0.9-0.2-1.1,0.4c-2.5,5.9-3.8,12.6-3.8,20c0,14.7,4.2,26,12.5,33.7c6.2,5.7,14.5,9.3,24.6,10.6
			c6.5,0.9,12,1.3,17.4,1.3l0,0c4.9,0,9.6-0.3,14.9-1c17.9-2.4,39.3-12.1,39.3-44.5c0-7.7-1.2-14.3-3.7-20
			C125.3,34,124.8,34,124.5,34.2z M89.9,98.3c-5.3,0.7-10,1-14.8,1l0,0c-5.3,0-10.8-0.4-17.3-1.3c-16.6-2.2-36.4-11.5-36.4-43.5
			c0-7.3,1.3-13.9,3.7-19.6c5.8,3.7,6.5,4,9.9,5.4c0.8,0.4,1.8,0.8,3.1,1.4c2.2,1,6.6,2.6,10.1,3.8c1.6,0.6,3,1.1,4.1,1.5
			c6.7,2.5,8.9,4.2,10.8,5.9l0.1,0.1c2,1.8,4.2,3.8,6.4,6.9c3.4,4.8,5,8.7,5,8.7c0.1,0.2,0.2,0.2,0.4,0.2c0,0,0,0,0,0
			c0.2,0,0.3-0.1,0.4-0.3c0,0,1.5-3.9,5.1-8.9c2.3-3.2,5-6,7.8-8.1c3.1-2.4,6.9-3.9,10.4-5.3c2.3-0.9,4.1-1.5,5.8-2.1
			c3.2-1.1,6-2.1,10.3-4.1c6-2.8,9.2-4.8,10-5.3c2.4,5.6,3.6,12.1,3.6,19.6C128.4,86.4,107.5,96,89.9,98.3z"/>
		<linearGradient id="SVGID_13_" gradientUnits="userSpaceOnUse" x1="21.2071" y1="67.1169" x2="128.5877" y2="67.1169">
			<stop  offset="0" style="stop-color:#5C5B5B"/>
			<stop  offset="0.1046" style="stop-color:#757474"/>
			<stop  offset="0.327" style="stop-color:#B4B3B3"/>
			<stop  offset="0.5697" style="stop-color:#FFFFFF"/>
			<stop  offset="0.7096" style="stop-color:#FDFDFD;stop-opacity:0.6749"/>
			<stop  offset="0.7703" style="stop-color:#F6F6F6;stop-opacity:0.5337"/>
			<stop  offset="0.8158" style="stop-color:#EAE9E9;stop-opacity:0.4282"/>
			<stop  offset="0.8536" style="stop-color:#D9D7D7;stop-opacity:0.3403"/>
			<stop  offset="0.8866" style="stop-color:#C2C0C0;stop-opacity:0.2634"/>
			<stop  offset="0.9164" style="stop-color:#A6A3A4;stop-opacity:0.1943"/>
			<stop  offset="0.9437" style="stop-color:#858182;stop-opacity:0.1309"/>
			<stop  offset="0.969" style="stop-color:#5F5A5A;stop-opacity:7.206398e-02"/>
			<stop  offset="0.9919" style="stop-color:#352E2F;stop-opacity:1.886868e-02"/>
			<stop  offset="1" style="stop-color:#241D1E;stop-opacity:0"/>
		</linearGradient>
		<path class="st26" d="M75.1,99.5L75.1,99.5c-5.4,0-10.9-0.4-17.3-1.3C41.1,96,21.2,86.7,21.2,54.6c0-7.2,1.3-13.9,3.8-19.7
			l0.1-0.1l0.1,0.1c5.8,3.7,6.5,4,9.9,5.4c0.8,0.3,1.8,0.8,3.1,1.4c2.2,1,6.6,2.6,10.1,3.8c1.6,0.6,3,1.1,4.1,1.5
			c6.7,2.5,8.9,4.3,10.8,6l0.1,0.1c2,1.8,4.2,3.8,6.4,6.9c3.4,4.8,5,8.7,5.1,8.8c0,0.1,0.1,0.2,0.3,0.2c0.1,0,0.2-0.1,0.3-0.2
			c0,0,1.5-3.9,5.2-8.9c2.3-3.2,5-6,7.8-8.2c3.1-2.4,6.9-4,10.4-5.3c2.3-0.9,4.1-1.5,5.8-2.1c3.2-1.1,6-2.1,10.3-4
			c6-2.8,9.2-4.7,10-5.3l0.1-0.1l0.1,0.1c2.4,5.6,3.6,12.1,3.6,19.7c0,32-21,41.5-38.7,43.9C84.7,99.2,79.9,99.5,75.1,99.5z
			 M25.1,35.2c-2.4,5.8-3.7,12.3-3.7,19.4c0,31.8,19.7,41.1,36.3,43.3c6.5,0.9,12,1.3,17.3,1.3l0,0c4.9,0,9.6-0.3,14.8-1
			c17.5-2.4,38.4-11.8,38.4-43.6c0-7.5-1.2-13.9-3.5-19.4c-1,0.7-4.1,2.6-9.9,5.2c-4.3,2-7.1,2.9-10.3,4.1c-1.8,0.6-3.6,1.2-5.8,2.1
			c-3.5,1.4-7.3,2.9-10.4,5.3c-2.8,2.2-5.5,5-7.8,8.1c-3.7,5-5.1,8.8-5.1,8.9c-0.1,0.2-0.3,0.4-0.5,0.4l0,0c-0.2,0-0.4-0.1-0.5-0.3
			c0,0-1.6-3.9-5-8.7c-2.2-3.1-4.4-5.1-6.3-6.9L63,53.2c-1.9-1.7-4.1-3.4-10.7-5.9c-1.1-0.4-2.5-0.9-4.1-1.5
			c-3.5-1.3-7.9-2.9-10.1-3.8c-1.3-0.6-2.3-1-3.1-1.4C31.6,39.1,30.9,38.8,25.1,35.2z"/>
		<path class="st27" d="M120.5,45.2C120.4,45.2,120.4,45.2,120.5,45.2c-0.1,0-0.1-0.1-0.1-0.1c0,0,1.5-2.8,2.2-4.4
			c0.7-1.5,2.1-5.5,2.1-5.5c0,0,0.1-0.1,0.1,0c0,0,0.1,0.1,0,0.1c0,0-1.4,4-2.1,5.6C122.1,42.3,120.5,45.1,120.5,45.2
			C120.5,45.1,120.5,45.2,120.5,45.2z"/>
		<linearGradient id="SVGID_14_" gradientUnits="userSpaceOnUse" x1="24.5631" y1="34.3027" x2="24.5631" y2="23.7762">
			<stop  offset="0" style="stop-color:#F6F8F8"/>
			<stop  offset="0.9385" style="stop-color:#F6F8F8"/>
			<stop  offset="1" style="stop-color:#F6F8F8"/>
		</linearGradient>
		<path class="st28" d="M24.8,24.1c0.1-0.5,0.2-0.4,0.2,0c-0.3,1.3-0.4,3.7-0.3,6.2C24.6,32,25,34,25,34c-0.2,0-0.6,0.1-0.6,0.4
			C24.1,31.4,23.9,28.1,24.8,24.1z"/>
		<path class="st29" d="M125.2,24.5c-0.1-0.5-0.2-0.5-0.1-0.1c0.3,1.3,0.4,3.6,0.4,6.1c0,1.8-0.3,3.5-0.3,3.5s0.4,0.2,0.5,0.7
			C126.1,30.4,125.8,27.1,125.2,24.5z"/>
		
			<linearGradient id="SVGID_15_" gradientUnits="userSpaceOnUse" x1="355.2331" y1="26.8129" x2="365.9373" y2="26.8129" gradientTransform="matrix(1 0 0 1 -241.0625 0)">
			<stop  offset="0" style="stop-color:#241D1E"/>
			<stop  offset="0.2295" style="stop-color:#292323"/>
			<stop  offset="0.5238" style="stop-color:#373333"/>
			<stop  offset="0.8518" style="stop-color:#4F4D4D"/>
			<stop  offset="1" style="stop-color:#5C5B5B"/>
		</linearGradient>
		<path class="st30" d="M120.7,28.1l-4.8,3.7l-1.8-2.8c1.2-1.6,3-4.5,3.2-4.8c0.2-0.3,0.8-0.7,1.2-0.9c0.5-0.2,2.5-1.1,4.1-1.7
			l2.1,2.4L120.7,28.1z"/>
		
			<linearGradient id="SVGID_16_" gradientUnits="userSpaceOnUse" x1="456.9909" y1="26.438" x2="467.6927" y2="26.438" gradientTransform="matrix(-1 0 0 1 492.75 0)">
			<stop  offset="0" style="stop-color:#241D1E"/>
			<stop  offset="0.2295" style="stop-color:#292323"/>
			<stop  offset="0.5238" style="stop-color:#373333"/>
			<stop  offset="0.8518" style="stop-color:#4F4D4D"/>
			<stop  offset="1" style="stop-color:#5C5B5B"/>
		</linearGradient>
		<path class="st31" d="M29.2,27.8l4.8,3.7l1.8-2.8c-1.2-1.6-3-4.5-3.2-4.8c-0.2-0.3-0.8-0.7-1.2-0.9c-0.5-0.2-2.5-1.1-4.1-1.7
			l-2.1,2.4L29.2,27.8z"/>
		
			<linearGradient id="SVGID_17_" gradientUnits="userSpaceOnUse" x1="5.7734" y1="26.6308" x2="16.7522" y2="26.6308" gradientTransform="matrix(1 0 0 1 19.125 0)">
			<stop  offset="0" style="stop-color:#AFAFB0"/>
			<stop  offset="0.1146" style="stop-color:#9A9A9B"/>
			<stop  offset="0.3893" style="stop-color:#6D6D6D"/>
			<stop  offset="0.5273" style="stop-color:#5C5B5B"/>
		</linearGradient>
		<path class="st32" d="M35.9,28.8c0,0-0.7,1-1,1.5c-0.3,0.5-0.9,1.5-0.9,1.5s-2.8-1.9-5.2-4c-2.1-1.9-3.1-3-3.9-4
			c0.4-0.5,2.1-2.3,2.1-2.3s-0.1,0.2,0.3,0.6c1.2,1.3,5.8,5.3,7.7,6.5C35.5,28.9,35.9,28.8,35.9,28.8z"/>
		<path class="st0" d="M122.8,21.7c-0.8,0.3-3.5,1.3-4.1,1.5c-0.3,0.1-0.7,0.1-1-0.2C108.3,13.8,94.3,9.3,75,9.3
			c-11.2,0-20.5,1.3-27.9,4c-5.9,2.1-10.8,5.3-14.9,9.4c-0.2,0.2-0.4,0.3-0.7,0.2c-0.4-0.1-3.5-1.2-4.4-1.6l-0.1,0.1
			c0.7,0.3,3.8,1.7,4.2,1.8c0.4,0.1,1,0.6,1.2,0.8c0.1,0.2,3.4,4.7,3.4,4.7l0-0.1c0,0-2.3-3.5-3-4.5c-0.2-0.3-0.2-0.7,0-1
			c3.9-4,8.8-7.1,14.6-9.2c7.3-2.6,16.5-3.9,27.6-3.9c19,0,32.8,4.4,42,13.5c0.3,0.3,0.3,0.6,0.1,0.8c-0.3,0.5-2.3,3.7-3,4.7l0,0.1
			c0.8-1.1,3.2-4.7,3.3-4.8c0.2-0.3,0.8-0.6,1.2-0.8C118.9,23.5,122,22.2,122.8,21.7L122.8,21.7z"/>
		
			<linearGradient id="SVGID_18_" gradientUnits="userSpaceOnUse" x1="107.5288" y1="26.851" x2="118.4062" y2="26.851" gradientTransform="matrix(-1 0 0 1 232.5625 0)">
			<stop  offset="0" style="stop-color:#9A9A9A"/>
			<stop  offset="0.1291" style="stop-color:#888787"/>
			<stop  offset="0.3856" style="stop-color:#686767"/>
			<stop  offset="0.5273" style="stop-color:#5C5B5B"/>
		</linearGradient>
		<path class="st33" d="M114.2,29.2l1.9,2.9c0,0,2.8-1.9,5.1-3.9c2.1-1.9,2.1-2,3.9-4l-2.2-2.5c0,0,0.1,0.4-0.4,1
			c-1.1,1.3-5.5,5.1-7.5,6.4C114.5,29.3,114.2,29.2,114.2,29.2z"/>
		<path class="st27" d="M29.5,45.3C29.4,45.3,29.4,45.3,29.5,45.3c-0.1-0.1-1.6-2.9-2.3-4.4c-0.7-1.6-2.1-5.5-2.1-5.5
			c0,0,0-0.1,0-0.1c0,0,0.1,0,0.1,0c0,0,1.4,4,2.1,5.5C28,42.3,29.5,45.2,29.5,45.3C29.5,45.2,29.5,45.3,29.5,45.3
			C29.5,45.3,29.5,45.3,29.5,45.3z"/>
	</g>
</g>
</svg>
