<svg width="19" height="19" viewBox="0 0 19 19" fill="none" xmlns="http://www.w3.org/2000/svg">
<path d="M10.3164 14.1406V10.2422H15.0293C16.257 10.2422 17.2559 9.24335 17.2559 8.01562V4.85944C18.2654 4.543 19 3.59887 19 2.48633C19 1.11536 17.8846 0 16.5137 0C15.1427 0 14.0273 1.11536 14.0273 2.48633C14.0273 3.59887 14.7619 4.54304 15.7715 4.85944V8.01562C15.7715 8.42487 15.4385 8.75781 15.0293 8.75781H10.3164V4.85944C11.326 4.543 12.0605 3.59887 12.0605 2.48633C12.0605 1.11536 10.9452 0 9.57422 0C8.20325 0 7.08789 1.11536 7.08789 2.48633C7.08789 3.59887 7.82247 4.54304 8.83203 4.85944V8.75781H3.9707C3.56146 8.75781 3.22852 8.42487 3.22852 8.01562V4.85944C4.23808 4.543 4.97266 3.59887 4.97266 2.48633C4.97266 1.11536 3.8573 0 2.48633 0C1.11536 0 0 1.11536 0 2.48633C0 3.59887 0.73458 4.54304 1.74414 4.85944V8.01562C1.74414 8.58544 1.95956 9.10575 2.31292 9.5C1.95956 9.89425 1.74414 10.4146 1.74414 10.9844V14.1406C0.73458 14.457 0 15.4011 0 16.5137C0 17.8846 1.11536 19 2.48633 19C3.8573 19 4.97266 17.8846 4.97266 16.5137C4.97266 15.4011 4.23808 14.457 3.22852 14.1406V10.9844C3.22852 10.5751 3.56146 10.2422 3.9707 10.2422H8.83203V14.1406C7.82247 14.457 7.08789 15.4011 7.08789 16.5137C7.08789 17.8846 8.20325 19 9.57422 19C10.9452 19 12.0605 17.8846 12.0605 16.5137C12.0605 15.4011 11.326 14.457 10.3164 14.1406ZM16.5137 1.48438C17.0662 1.48438 17.5156 1.93384 17.5156 2.48633C17.5156 3.03881 17.0662 3.48828 16.5137 3.48828C15.9612 3.48828 15.5117 3.03881 15.5117 2.48633C15.5117 1.93384 15.9612 1.48438 16.5137 1.48438ZM9.57422 1.48438C10.1267 1.48438 10.5762 1.93384 10.5762 2.48633C10.5762 3.03881 10.1267 3.48828 9.57422 3.48828C9.02173 3.48828 8.57227 3.03881 8.57227 2.48633C8.57227 1.93384 9.02173 1.48438 9.57422 1.48438ZM2.48633 1.48438C3.03881 1.48438 3.48828 1.93384 3.48828 2.48633C3.48828 3.03881 3.03881 3.48828 2.48633 3.48828C1.93384 3.48828 1.48438 3.03881 1.48438 2.48633C1.48438 1.93384 1.93384 1.48438 2.48633 1.48438ZM2.48633 17.5156C1.93384 17.5156 1.48438 17.0662 1.48438 16.5137C1.48438 15.9612 1.93384 15.5117 2.48633 15.5117C3.03881 15.5117 3.48828 15.9612 3.48828 16.5137C3.48828 17.0662 3.03881 17.5156 2.48633 17.5156ZM9.57422 17.5156C9.02173 17.5156 8.57227 17.0662 8.57227 16.5137C8.57227 15.9612 9.02173 15.5117 9.57422 15.5117C10.1267 15.5117 10.5762 15.9612 10.5762 16.5137C10.5762 17.0662 10.1267 17.5156 9.57422 17.5156ZM19 14.6768C19 13.5411 18.0761 12.6172 16.9404 12.6172H14.4727V19H15.957V16.7363H16.1546L17.3074 19H18.9732L17.7384 16.5754C18.4789 16.263 19 15.5296 19 14.6768ZM15.957 14.1016H16.9404C17.2576 14.1016 17.5156 14.3596 17.5156 14.6768C17.5156 14.9939 17.2576 15.252 16.9404 15.252H15.957V14.1016Z" fill="#303030"/>
</svg>
