<svg id="Слой_1" data-name="Слой 1" xmlns="http://www.w3.org/2000/svg" xmlns:xlink="http://www.w3.org/1999/xlink" viewBox="0 0 150 111"><defs><style>.cls-1{fill:#1a1a1a;}.cls-2{fill:#8c8c8c;}.cls-3{fill:url(#Безымянный_градиент_9);}.cls-4{fill:#f2f2f2;}.cls-5{fill:#c2c2c2;}.cls-6{fill:url(#Безымянный_градиент_2);}.cls-7{fill:url(#Безымянный_градиент_3);}.cls-8{fill:url(#Безымянный_градиент_4);}.cls-9{fill:url(#Безымянный_градиент_5);}.cls-10{fill:url(#Безымянный_градиент_6);}.cls-11{fill:url(#Безымянный_градиент_7);}.cls-12{fill:url(#Безымянный_градиент_8);}</style><linearGradient id="Безымянный_градиент_9" x1="2.97" y1="105.73" x2="12.41" y2="105.73" gradientTransform="matrix(8.79, 0, 0, -8.79, -7.79, 975.49)" gradientUnits="userSpaceOnUse"><stop offset="0" stop-color="#8c8c8c"/><stop offset="1" stop-color="#4d4d4d"/></linearGradient><linearGradient id="Безымянный_градиент_2" x1="5.34" y1="108.12" x2="13.5" y2="101.28" gradientTransform="matrix(8.79, 0, 0, -8.79, -7.79, 975.49)" gradientUnits="userSpaceOnUse"><stop offset="0" stop-color="#e0e0e0"/><stop offset="0.15" stop-color="#939393"/><stop offset="0.17" stop-color="#9f9f9f"/><stop offset="0.23" stop-color="#c1c1c1"/><stop offset="0.3" stop-color="#dcdcdc"/><stop offset="0.37" stop-color="#f0f0f0"/><stop offset="0.44" stop-color="#fbfbfb"/><stop offset="0.51" stop-color="#fff"/><stop offset="0.58" stop-color="#fbfbfb"/><stop offset="0.64" stop-color="#f0f0f0"/><stop offset="0.7" stop-color="#dcdcdc"/><stop offset="0.76" stop-color="#c1c1c1"/><stop offset="0.82" stop-color="#9e9e9e"/><stop offset="0.85" stop-color="#8c8c8c"/><stop offset="1" stop-color="#fafafa"/></linearGradient><linearGradient id="Безымянный_градиент_3" x1="4.01" y1="102.18" x2="14.74" y2="102.18" gradientTransform="matrix(8.79, 0, 0, -8.79, -7.79, 975.49)" gradientUnits="userSpaceOnUse"><stop offset="0.01" stop-color="#1a1a1a"/><stop offset="0.01" stop-color="#282828"/><stop offset="0.03" stop-color="#5d5d5d"/><stop offset="0.05" stop-color="#888"/><stop offset="0.06" stop-color="#a6a6a6"/><stop offset="0.08" stop-color="#b9b9b9"/><stop offset="0.08" stop-color="#bfbfbf"/><stop offset="0.14" stop-color="#999"/><stop offset="0.21" stop-color="#777"/><stop offset="0.28" stop-color="#5a5a5a"/><stop offset="0.36" stop-color="#424242"/><stop offset="0.45" stop-color="#303030"/><stop offset="0.56" stop-color="#232323"/><stop offset="0.7" stop-color="#1c1c1c"/><stop offset="1" stop-color="#1a1a1a"/></linearGradient><linearGradient id="Безымянный_градиент_4" x1="4.11" y1="107.2" x2="14.84" y2="107.2" gradientTransform="matrix(8.79, 0, 0, -8.79, -7.79, 975.49)" gradientUnits="userSpaceOnUse"><stop offset="0" stop-color="#e0e0e0"/><stop offset="0.12" stop-color="#dbdbdb"/><stop offset="0.26" stop-color="#ccc"/><stop offset="0.42" stop-color="#b2b2b2"/><stop offset="0.59" stop-color="#8f8f8f"/><stop offset="0.77" stop-color="#626262"/><stop offset="0.84" stop-color="#4d4d4d"/><stop offset="1" stop-color="#1a1a1a"/></linearGradient><linearGradient id="Безымянный_градиент_5" x1="4.25" y1="102.3" x2="14.51" y2="102.3" gradientTransform="matrix(8.79, 0, 0, -8.79, -7.79, 975.49)" gradientUnits="userSpaceOnUse"><stop offset="0" stop-color="#fff"/><stop offset="0" stop-color="#ececec"/><stop offset="0" stop-color="#dbdbdb"/><stop offset="0" stop-color="#d0d0d0"/><stop offset="0" stop-color="#c9c9c9"/><stop offset="0.01" stop-color="#c7c7c7"/><stop offset="0.18" stop-color="#c9c9c9"/><stop offset="0.28" stop-color="#d2d2d2"/><stop offset="0.36" stop-color="#e0e0e0"/><stop offset="0.43" stop-color="#f4f4f4"/><stop offset="0.47" stop-color="#fff"/><stop offset="0.64" stop-color="#fdfdfd"/><stop offset="0.73" stop-color="#f5f5f5"/><stop offset="0.81" stop-color="#e7e7e7"/><stop offset="0.87" stop-color="#d4d4d4"/><stop offset="0.93" stop-color="#bcbcbc"/><stop offset="0.98" stop-color="#9d9d9d"/><stop offset="1" stop-color="#8c8c8c"/></linearGradient><linearGradient id="Безымянный_градиент_6" x1="5.59" y1="108.64" x2="14.58" y2="104.29" gradientTransform="matrix(8.79, 0, 0, -8.79, -7.79, 975.49)" gradientUnits="userSpaceOnUse"><stop offset="0.01" stop-color="#c7c7c7"/><stop offset="0.03" stop-color="#d2d2d2"/><stop offset="0.06" stop-color="#ddd"/><stop offset="0.09" stop-color="#e0e0e0"/><stop offset="0.1" stop-color="#e9e9e9"/><stop offset="0.12" stop-color="#f6f6f6"/><stop offset="0.14" stop-color="#fdfdfd"/><stop offset="0.2" stop-color="#fff"/><stop offset="0.71" stop-color="#8c8c8c"/><stop offset="1" stop-color="#8c8c8c"/></linearGradient><linearGradient id="Безымянный_градиент_7" x1="14.27" y1="106.93" x2="4.65" y2="106.93" gradientTransform="matrix(8.79, 0, 0, -8.79, -7.79, 975.49)" gradientUnits="userSpaceOnUse"><stop offset="0" stop-color="#e0e0e0"/><stop offset="0" stop-color="#e0e0e0"/><stop offset="0.01" stop-color="#e0e0e0"/><stop offset="0.18" stop-color="#c2c2c2"/><stop offset="0.57" stop-color="#757575"/><stop offset="1" stop-color="#1a1a1a"/></linearGradient><linearGradient id="Безымянный_градиент_8" x1="14.18" y1="102.43" x2="4.57" y2="102.43" gradientTransform="matrix(8.79, 0, 0, -8.79, -7.79, 975.49)" gradientUnits="userSpaceOnUse"><stop offset="0" stop-color="#1a1a1a"/><stop offset="0.02" stop-color="#303030"/><stop offset="0.06" stop-color="#656565"/><stop offset="0.1" stop-color="#929292"/><stop offset="0.15" stop-color="#b4b4b4"/><stop offset="0.18" stop-color="#ccc"/><stop offset="0.22" stop-color="#dbdbdb"/><stop offset="0.25" stop-color="#e0e0e0"/><stop offset="0.36" stop-color="#ddd"/><stop offset="0.47" stop-color="#d1d1d1"/><stop offset="0.57" stop-color="#bdbdbd"/><stop offset="0.68" stop-color="#a2a2a2"/><stop offset="0.78" stop-color="#7e7e7e"/><stop offset="0.89" stop-color="#535353"/><stop offset="0.99" stop-color="#212121"/><stop offset="1" stop-color="#1a1a1a"/></linearGradient></defs><path class="cls-1" d="M94.55,46.38,101.28,44,85.77,55.48l-6,1.77Z"/><path class="cls-2" d="M135.55,58.34l-3.79,1.9-52-3,6-1.77Z"/><path class="cls-1" d="M131.7,64.18,48.14,66.92l6.75-2.34,75.64-2.48Z"/><path class="cls-2" d="M48.14,66.92l6.75-2.34L69.66,53.71l-6,1.77Z"/><path class="cls-1" d="M69.66,53.71l-6,1.77L14.45,52.62l3.79-1.9Z"/><path class="cls-2" d="M18.3,46.77l1.17,2.08-1.23,1.87-3.79,1.9Z"/><path class="cls-3" d="M18.3,46.77l1.17,2.08,75.08-2.47L101.28,44"/><path class="cls-1" d="M85.77,55.48l-6,1.77L94.55,46.38"/><polygon class="cls-4" points="79.31 57.49 94.49 46.3 94.6 46.45 80.28 57.01 85.74 55.39 85.79 55.57 79.31 57.49"/><path class="cls-2" d="M135.55,58.34l-3.79,1.9-52-3"/><polygon class="cls-4" points="131.79 60.37 131.75 60.36 79.79 57.38 79.8 57.13 131.74 60.11 135.49 58.23 135.6 58.45 131.79 60.37"/><path class="cls-1" d="M48.14,66.92l6.75-2.34,75.64-2.48,1.17,2.08"/><polygon class="cls-4" points="48.19 67.03 48.1 66.8 54.86 64.46 54.88 64.46 130.6 61.98 131.8 64.12 131.59 64.24 130.46 62.23 54.91 64.7 48.19 67.03"/><path class="cls-1" d="M131.7,64.18l-1.17-2.08,1.23-1.86,3.79-1.9"/><path class="cls-5" d="M48.14,66.92l6.75-2.34L69.66,53.71l-6,1.77"/><polygon class="cls-4" points="48.17 67 48.11 66.83 54.84 64.5 69.17 53.95 63.71 55.57 63.66 55.39 70.14 53.47 54.93 64.66 48.17 67"/><path class="cls-6" d="M19.47,48.85l-1.23,1.87,51.42,3L54.89,64.58l75.64-2.48,1.23-1.86-52-3L94.55,46.38,19.47,48.85Z"/><path class="cls-1" d="M14.45,52.62l3.79-1.9,51.42,3-6.61,1.95"/><polygon class="cls-4" points="63.08 55.75 63.03 55.58 69.12 53.77 18.25 50.81 14.49 52.7 14.41 52.53 18.22 50.63 18.24 50.63 70.2 53.65 63.08 55.75"/><polygon class="cls-4" points="14.49 52.7 14.41 52.53 18.17 50.65 19.36 48.85 18.22 46.82 18.39 46.73 19.58 48.86 18.3 50.79 14.49 52.7"/><polygon class="cls-4" points="19.41 48.95 18.22 46.82 18.39 46.73 19.52 48.76 94.53 46.28 101.25 43.95 101.31 44.13 94.56 46.47 94.55 46.47 19.41 48.95"/><path class="cls-1" d="M47.43,67.16,63.05,55.67l-49-2.85,4.13-6.26L102,43.79,86.4,55.29,136,58.14l-4.13,6.26h-.07ZM14.49,52.6l49.27,2.86L48.22,66.89l83.46-2.73,3.83-5.8L85.7,55.5l15.51-11.43L18.32,46.8Z"/><path class="cls-7" d="M119.71,63.7a45,45,0,0,1-8.11,18.76,45.44,45.44,0,0,1-81.89-30.3l-2.2,1.22a47.57,47.57,0,0,0,94.22,11.13l-2-.81Z"/><path class="cls-8" d="M122.54,57.59A47.57,47.57,0,0,0,28.32,46.44l1.95,1.16a45.44,45.44,0,0,1,90,11.52l2.23-1.53Z"/><path class="cls-9" d="M116.78,64A42.61,42.61,0,0,1,32.49,52.77l-2.78-.57a45.43,45.43,0,0,0,90,11.49l-2.92.26Z"/><path class="cls-10" d="M120.31,59.12a45.43,45.43,0,0,0-90-11.52l2.82.23a42.61,42.61,0,0,1,84.4,11l2.8.34Z"/><path class="cls-11" d="M117.52,58.78c.08-1.08.13-2.17.13-3.28a42.63,42.63,0,0,0-84.56-7.66l2.5-1.63a40.51,40.51,0,0,1,79.94,9.29c0,.8,0,1.6-.07,2.39l2.06.89Z"/><path class="cls-12" d="M114.45,64.83A40.52,40.52,0,0,1,34.51,55.5c0-.65,0-1.29.05-1.93l-2.08-.81c0,.91-.08,1.83-.08,2.74a42.63,42.63,0,0,0,84.41,8.44Z"/><path class="cls-4" d="M75,101.07A45.62,45.62,0,0,1,29.45,55.5c0-1.1,0-2.21.12-3.31l.25,0c-.08,1.09-.12,2.2-.12,3.29a45.32,45.32,0,0,0,84.43,22.88,44.89,44.89,0,0,0,5.47-14.7l.25,0a45.17,45.17,0,0,1-5.51,14.78A45.82,45.82,0,0,1,90.89,98.22,45.28,45.28,0,0,1,75,101.07Zm45.43-41.95-.25,0c.09-1.19.14-2.4.14-3.6A45.32,45.32,0,0,0,35.8,32.81a44.9,44.9,0,0,0-5.41,14.81l-.25,0a45.24,45.24,0,0,1,5.45-14.9,46,46,0,0,1,10-11.94,45.55,45.55,0,0,1,75,34.76C120.59,56.7,120.54,57.92,120.45,59.12Z"/><path class="cls-4" d="M117.64,58.92l-.25,0v-.12c.08-1.09.12-2.19.12-3.28a42.5,42.5,0,0,0-84.31-7.63l0,.12-.25,0,0-.12a42.75,42.75,0,0,1,84.81,7.67c0,1.09,0,2.2-.13,3.29Z"/><path class="cls-4" d="M75,98.25A42.8,42.8,0,0,1,32.27,55.5c0-.91,0-1.83.09-2.74l.25,0c-.06.9-.09,1.82-.09,2.72a42.51,42.51,0,0,0,78.89,21.94,41.94,41.94,0,0,0,5.27-13.52l.25,0a42.31,42.31,0,0,1-5.31,13.59A42.67,42.67,0,0,1,75,98.25Z"/><path class="cls-1" d="M75,96.13A40.67,40.67,0,0,1,34.39,55.5c0-.61,0-1.22,0-1.83l-2-.78-2.73-.6-2.16,1.2-.12-.22L29.69,52l2.85.62,2.15.85v.09c0,.63,0,1.28,0,1.91a40.39,40.39,0,0,0,79.67,9.36l0-.06,2.45-1,3-.24,2,.81-.1.23-2-.79-2.87.24-2.29.91a40.2,40.2,0,0,1-5.27,12.36A40.78,40.78,0,0,1,88.68,93.77,40.3,40.3,0,0,1,75,96.13Z"/><path class="cls-1" d="M75,103.18A47.65,47.65,0,0,1,27.34,55.5c0-.68,0-1.36,0-2v-.12h.25v.12c0,.67,0,1.35,0,2a47.42,47.42,0,0,0,77.8,36.44,47.29,47.29,0,0,0,16.2-27.4l0-.12.24,0,0,.12A47.65,47.65,0,0,1,75,103.18Z"/><polygon class="cls-4" points="120.33 59.22 117.42 58.89 115.35 57.86 115.43 57.7 117.48 58.71 120.28 59.03 122.52 57.42 122.63 57.57 120.33 59.22"/><path class="cls-1" d="M115.58,57.91h-.24c0-.28,0-.56,0-.83h.24C115.61,57.35,115.6,57.63,115.58,57.91Z"/><polygon class="cls-4" points="33.16 48.02 30.26 47.69 30.21 47.68 28.21 46.37 28.32 46.22 30.3 47.51 33.14 47.83 35.59 46.04 35.7 46.19 33.22 48 33.16 48.02"/><path class="cls-1" d="M115.63,57.08h-.25c0-.52,0-1,0-1.57A40.38,40.38,0,0,0,40.94,33.86a39.82,39.82,0,0,0-5.23,12.37l-.24,0a40.38,40.38,0,0,1,5.26-12.46A40.85,40.85,0,0,1,61.34,17.24,40.22,40.22,0,0,1,75,14.87,40.68,40.68,0,0,1,115.66,55.5C115.66,56,115.65,56.55,115.63,57.08Z"/><path class="cls-1" d="M122.66,57.62h-.25v-.12c0-.67,0-1.34,0-2A47.45,47.45,0,0,0,34.29,31.17a46.79,46.79,0,0,0-5.82,15.2l0,.12-.24-.05,0-.12A47.68,47.68,0,0,1,122.7,55.5c0,.65,0,1.33,0,2Z"/></svg>