<?xml version="1.0" encoding="utf-8"?>
<!-- Generator: Adobe Illustrator 24.3.0, SVG Export Plug-In . SVG Version: 6.00 Build 0)  -->
<svg version="1.1" id="Слой_1" xmlns="http://www.w3.org/2000/svg" xmlns:xlink="http://www.w3.org/1999/xlink" x="0px" y="0px"
	 viewBox="0 0 150 111" style="enable-background:new 0 0 150 111;" xml:space="preserve">
<style type="text/css">
	.st0{fill-rule:evenodd;clip-rule:evenodd;fill:#255398;}
	.st1{fill-rule:evenodd;clip-rule:evenodd;fill:#A6A8AA;}
	.st2{fill-rule:evenodd;clip-rule:evenodd;fill:#FFFFFF;}
	.st3{fill-rule:evenodd;clip-rule:evenodd;fill:#E6E6E7;}
</style>
<g>
	<path class="st0" d="M123.85,105.73V5.27H26.15v100.47H123.85z"/>
	<g>
		<path class="st1" d="M84.67,78.28c2.73,1.89,3.96,2.74,6.64,4.17c2.23-0.96,4.83-0.04,4.43,1.88c-0.27,1.27-0.49,3.99-1.91,3.89
			c-1.57-0.13-3.3-0.92-5.4,0.37c-1.41,0.83-3.36,4.63-4.61,4.94c0.55,0.77,1.1,1.54,1.64,2.31c3.55,0,6.22,1.91,7.61,2.81
			c5.8-2.56,8.07-1.48,13.82-0.4c0.71,0.14,1.09-1.01,0.87-1.95c-0.38-1.59-1.34-3.85-1.41-4.86l0-13.3
			c-0.85-1.04-2.02-2.95-2.02-2.95c-2.44,0.65-3.57,0.5-4.02-0.96c-0.48-1.58-1.66-4.85-2.58-6.9c0,0,5.21-0.64,8.33-4.58
			c1.17-1.47,2.41-3.92,2.39-6.86c-0.06-6.59-5.05-16.29-6.3-19.64c-0.75-2.01-2.93-7.31-0.82-9.48c0.83-0.85,2.53-1.31,3.75,1.35
			c0.59,1.29,0.85,0.73,0.73,0.96c-1.52,2.46-2.42,3.77-1.78,6.02c0.88,3.13,4.75,6.12,5.98,6.94c0,0,2.06,1.41,2.48,1.08
			c0.99-0.79-1.43-4.94-1.38-5.78c0.05-0.77,0.08-1.47,0.32-2.28c0.27-0.91,0.68-2.25,0.92-3.62c0.77-4.38-2.68-10.46-6.71-11.04
			c-1.07-0.15-4.49,1.2-7.48,5.88c-0.57,0.89-1.38,3.17-1.29,4.92c-1.46-3.67-3.26-7.84-5.22-10.93c-0.63-1.46-3.96-5.52-4.96-5.8
			c-2.76-0.77-5.18-0.3-7.78-0.72c-1.07,0.11-8.74,1.86-8.99,2.24c0,0-1.87,3.06-1.87,3.08c-1.9,0.49-4.35,1.34-4.64,1.74
			c-0.85,1.08-1.65,1.53-1.38,1.97c0.36,1.25,1.17,1.5,1.17,1.5l4.19,0.01c1.09-1.93,4.43-1.64,6.37,0.04c0.69,0.6,0,0.1,0.32,1.01
			c-1.13,0.49-2.94,1.09-4.24,0.75c-1.78-0.26-5.38-0.52-6.37-0.15l0.72,1.23c1.09,0.49,3.4,0.7,4.26,0.72
			c1.39,0.03,3.46,0.18,5.27,0.03c-0.91,1.35-1.45,3.15-2.67,3.15h-4.86c0.07,0.34-1.03,0.26-0.92,0.58c0,0,0.72,0.9,1.11,1.47
			l2.9,0.15c1.33,0.08,1.24,1.41,0.76,2.16c-0.82,1.26-3.1,3.6-5.06,3.8c-4.92-4.5-8.6-7.78-13.43-11.81
			c-0.82-0.69-1.72-1.01-3.06-1.26c-1.34-0.24-3.59-0.46-5.57-0.46c-0.84,0-5.24-0.5-5.54-0.2l0.82,1.29
			c0.11,0.69-0.05,1.04-0.17,2.32c-0.04,0.51-0.24,1.42-0.24,1.42s0.63,0.91,1.14,1.71c2.14-0.87,3.93,0.81,3.93,0.81l-1.58,1.19
			l1.51,2.22c2.57,1.01,4.35,1.11,8.07,0.32l7.17,9.18l-13.1,0.7c-1.81,0.07-3.2,1.55-3.64,2.81c-0.45,1.24-2.85,1.73-2.96,2.73
			l1.54,2.36l0.9-0.28c0.53,0.67,1.41,2.01,2.75,2.66c0.47-0.89,1.73-1.99,3.22-1.67c0.39,0.52,1.33,1.98,1.33,1.98
			c2.23,0.37,4.91-1.42,5.37-3.7l10.82-0.16l5.98,7.37c-4.17,5.91-8.48,12.84-12.56,19.64c1.78,1.7,1.16,5.16-1.76,5.49
			c-2,0.22-4.2-1.71-6.88-1.08c-2.68,0.61-5.83,2.46-7.42,4.89c0.28,0.44,1.53,2.24,1.53,2.24c2.29,0.59,5.05,1.94,6.98,4.59
			c3.33-2.3,10.87-0.2,13.68,0.78c0.77,0.33,1.4-0.27,1.34-1.41c-0.06-1.27-1.28-3.09-0.61-5.17c1.2-3.72,10.11-11.42,15-16.27
			C79.52,74.45,82.93,77.08,84.67,78.28z M101.56,45.68c1.54,4.07,2.09,5.82,2.59,8.59c0.4,2.21,0.18,4.22-0.64,5.37
			c-0.96,1.35-3.51,3.49-8.5,2.26l0-0.01c-1.55-2.38-4.63-6.94-6.03-9.21c1-3.82,1.45-4.75,2.23-8.39l1.97,1.05
			c0.92-2.71,3.16-9.45,3.6-11.9c0,0,0.7,1.34,1.21,2.91C99.12,39.84,100.43,42.69,101.56,45.68L101.56,45.68z M75.13,18.37
			c-0.95,0.44-2.69,1.08-4.12,1.59c-0.32-0.82-0.35-1.47-0.21-2.44c1.17-0.19,2.94-0.44,4.07-0.44
			C75.6,17.07,75.8,18.04,75.13,18.37z"/>
		<path class="st2" d="M108.94,34.98c0.06-0.77,0.27-1.47,0.51-2.28c0.27-0.93,0.78-2.24,0.93-3.63c0.48-4.38-1.95-8.42-5.98-9
			c-1.07-0.15-5.35-0.86-8.34,3.83c-0.57,0.89-1.38,3.18-1.3,4.93c-1.47-3.68-3.27-7.86-5.24-10.95c-0.42-0.61-2.63-3.34-3.24-3.52
			c-2.75-0.77-6.04-1.57-8.66-2c-1.07,0.11-9.11,3.12-9.37,3.5c0,0-0.92,1.01-0.92,1.03c-1.91,0.49-5.84,1.13-6.13,1.52
			c-0.85,1.08-0.26,2.09,0.02,2.54c0.09,0.16,0.73,2.5,1.86,2.5l3.04,0.01c1.48-2.62,5.82-2.75,7.03,0.77
			c-1.14,0.49-2.04,1.05-4.28,0.75c-2.71-0.4-5.43,0.57-5.41,0.96c0.02,0.62,3.19,0.83,4.02,0.85c1.4,0.03,3.49,0.18,5.32,0.03
			c-0.91,1.36-2.7,1.88-3.92,1.88H64c0.21,1.04,0.63,2.03,1.22,2.91h2c1.33,0.08,0.92,0.6,0.63,1.46c-0.51,1.55-1.44,3.89-2.91,5.26
			c-4.93-4.51-11.54-10.16-16.21-13.75c-1.36-1.05-6.97-1.78-9.78-0.66c-0.81,0.32-1.32,1.01-1.6,1.57l1.4,0.42
			c-2.56,1.61-0.98,4.64-0.98,4.64c1.24-0.28,3.19-0.93,5.24,2.24l-1.73,1.44c0.88,0.65,6.14,1.29,7.65,0.31
			c0,0,6.22,8.72,6.89,9.09c0.36,0.2-2.53,0.37-5.76,0.62c-2.78,0.05-5.37,0.09-7.41,0.14c-1.83,0.04-3.17,1.5-3.6,2.76
			c-0.45,1.24-0.94,3.88-0.73,5.03l1.01-0.34c1.29,2.24,1.35,2.74,3.01,3.4c0.93-2.47,4.43-2.21,4.43-2.21l-0.04,2.25
			c4.86-0.03,5.32-3.72,5.32-3.72l9.48-0.16l6,7.63c-4.92,5.37-8.35,12.02-12.06,19.12c1.79,1.7,1.17,5.17-1.77,5.5
			c-2,0.22-4.21-1.72-6.9-1.08c-3.28,0.75-2.6,3.52-5.19,7.13c2.59,0.67,5.29,2.44,7.07,4.59c3.55-2.36,10.74-0.54,13.56,0.44
			c0.63,0.21,0.89-0.98,0.48-1.98c-0.33-0.82-0.81-2.09,0.04-4.17c0.76-1.86,9.21-10.89,15.21-16.63c0.03-0.03,2.1,1.61,4.18,3.21
			c3.25,2.51,7.57,5.04,7.57,5.04l0.87-0.07c3.93-0.88,4.6,2.76,4.16,3.99c-0.44,1.23-1.6,1.96-3.02,1.86
			c-1.57-0.13-3.31-0.92-5.41,0.37c-2.12,1.24-1.21,5.4-2.5,7.15c3.56,0,6.42,1.91,7.81,2.81c5.81-2.57,7.51-1.78,13.39-0.74
			c0.41,0.08,0.73-1.12,0.28-1.81c-0.42-0.64-1.08-2.36-0.96-3.79V75.2c-3.75,0.52-5.48-1.11-6.13-3.24
			c-0.48-1.59-1.91-4.82-2.83-6.89c0,0,5.79-0.15,8.91-4.1c1.17-1.48,2.17-4.46,1.63-7.27c-0.74-3.89-1.23-5.2-2.53-8.6
			c-1.08-2.83-3.09-8.01-3.92-10.96c-1.17-4.17-1.35-6.03-0.1-8.33c0.76-1.4,2.39-2.71,4.26-1.76c1.22,0.63,0.96,0.99,0.84,1.23
			c-1.52,2.46-2.13,5.65-1.49,7.9c0.88,3.14,3.71,5.68,4.95,6.5c0,0,2.07,1.41,2.48,1.08C111.4,39.99,108.84,36.22,108.94,34.98
			L108.94,34.98z M74.55,17.36c-0.95,0.44-2.69,1.08-4.11,1.58c-0.32-0.82-0.35-1.47-0.21-2.43c1.19-0.2,2.93-0.44,4.06-0.44
			C75.02,16.07,75.22,17.04,74.55,17.36L74.55,17.36z M99.22,43.84c1.54,4.08,2.1,5.83,2.59,8.61c0.4,2.22,0.18,4.23-0.64,5.39
			c-0.96,1.36-3.52,3.5-8.52,2.27l0-0.01c-1.56-2.39-4.33-6.7-5.73-8.98c1-3.83,1.45-4.76,2.24-8.41c0,0,2.19,1.26,2.28,0.82
			c0.37-1.62,2.86-9.23,3.3-11.69c0,0,0.38,1.09,0.89,2.67C96.76,37.99,98.09,40.83,99.22,43.84L99.22,43.84z"/>
		<path class="st3" d="M99.22,43.86c1.54,4.08,2.09,5.83,2.59,8.6c0.39,2.18,0.19,4.19-0.64,5.35c-0.96,1.36-3.51,3.51-8.51,2.27
			l0,0.01c-1.56-2.39-4.32-6.7-5.73-8.97c1-3.82,1.45-4.75,2.24-8.4c0,0,2.18,1.26,2.28,0.82c0.37-1.61,2.86-9.23,3.3-11.68
			c0,0,0.38,1.08,0.89,2.66C96.77,38.01,98.09,40.86,99.22,43.86L99.22,43.86z M81.78,27.99c0,10.79-4.84,18.75-5.47,28.36
			c-0.4,6.15-0.01,9.97,1.69,15.61c0,0,2.06,1.6,4.14,3.2c3.25,2.5,7.52,5.11,7.52,5.11l1.1-0.11c3.71-0.89,4.36,2.8,3.92,4.02
			c-0.44,1.22-1.54,1.86-2.96,1.76c-1.57-0.13-3.31-0.92-5.41,0.37c-2.12,1.24-1.23,5.44-2.51,7.19c3.55,0,6.43,1.93,7.82,2.83
			c5.81-2.57,7.55-1.75,13.43-0.7c0.41,0.08,0.71-1.15,0.24-1.98c-0.38-0.67-1.05-2.32-0.96-3.64l-0.02-14.85
			c-3.75,0.52-5.47-1.11-6.12-3.24c-0.48-1.59-1.86-4.77-2.78-6.83c0,0,5.78-0.15,8.9-4.09c1.17-1.47,2.15-3.91,1.72-7.23
			c-0.47-3.63-1.73-6.68-2.48-8.73c-1.04-2.85-3.16-7.78-3.99-10.73c-1.17-4.16-1.54-5.93-0.21-8.46c0.74-1.41,2.39-2.73,4.25-1.78
			c1.22,0.63,0.95,0.99,0.84,1.22c-1.52,2.46-2.13,5.65-1.49,7.89c0.89,3.14,3.71,5.67,4.94,6.49c0,0,2.11,1.44,2.52,1.11
			c0.99-0.79-1.58-4.59-1.49-5.82c0.06-0.77,0.26-1.47,0.5-2.28c0.27-0.93,0.81-2.3,0.96-3.69c0.48-4.38-1.99-8.41-6.02-8.99
			c-1.07-0.15-5.34-0.85-8.33,3.84c-0.56,0.88-1.39,3.02-1.29,4.93c-1.47-3.68-3.25-7.86-5.21-10.94c-0.42-0.61-2.63-3.33-3.24-3.51
			c-2.46-0.69-7.31-1.91-8.65-1.99C77.66,12.35,81.78,17.2,81.78,27.99L81.78,27.99z"/>
	</g>
</g>
</svg>
