<?xml version="1.0" encoding="utf-8"?>
<!-- Generator: Adobe Illustrator 24.3.0, SVG Export Plug-In . SVG Version: 6.00 Build 0)  -->
<svg version="1.1" id="Слой_1" xmlns="http://www.w3.org/2000/svg" xmlns:xlink="http://www.w3.org/1999/xlink" x="0px" y="0px"
	 viewBox="0 0 150 111" style="enable-background:new 0 0 150 111;" xml:space="preserve">
<style type="text/css">
	.st0{fill:#FF0016;}
</style>
<path class="st0" d="M61.08,30.56c0.92-3.02,3.26-1.48,3.26-1.48s6.06,4.61,22.68,15.19s37.34-4.1,37.34-4.1L75.15,5.21
	C53.56,28.09,25.93,36.29,25.93,36.29l0.08,0.03l62.91,44.11c-0.92,3.02-3.26,1.48-3.26,1.48S79.6,77.3,62.98,66.72
	c-16.62-10.58-37.34,4.1-37.34,4.1l49.21,34.97c21.59-22.88,49.21-31.08,49.21-31.08l-0.08-0.03L61.08,30.56L61.08,30.56z"/>
</svg>
