<svg id="Слой_1" data-name="Слой 1" xmlns="http://www.w3.org/2000/svg" xmlns:xlink="http://www.w3.org/1999/xlink" viewBox="0 0 150 111"><defs><style>.cls-1{fill:url(#Безымянный_градиент_8);}.cls-2{fill:url(#Безымянный_градиент_8-2);}.cls-3{fill:url(#Безымянный_градиент_8-3);}.cls-4{fill:url(#Безымянный_градиент_8-4);}.cls-5{fill:url(#Безымянный_градиент_8-5);}.cls-6{fill:url(#Безымянный_градиент_8-6);}.cls-7{fill:url(#Безымянный_градиент_8-7);}.cls-8{fill:url(#Безымянный_градиент_8-8);}.cls-9{fill:#2d2f34;}.cls-10{fill:url(#Безымянный_градиент_11);}.cls-11{fill:url(#Безымянный_градиент_11-2);}.cls-12{fill:url(#Безымянный_градиент_11-3);}.cls-13{fill:url(#Безымянный_градиент_12);}</style><linearGradient id="Безымянный_градиент_8" x1="-1036.54" y1="-1233.35" x2="-1036.54" y2="-1238.15" gradientTransform="translate(9216.69 10962.22) scale(8.82)" gradientUnits="userSpaceOnUse"><stop offset="0" stop-color="#f0f3f5"/><stop offset="0.06" stop-color="#e2e5e8"/><stop offset="0.14" stop-color="#d4d8dd"/><stop offset="0.24" stop-color="#ccd0d6"/><stop offset="0.44" stop-color="#caced4"/><stop offset="0.57" stop-color="#b3b7bd"/><stop offset="0.83" stop-color="#797c83"/><stop offset="1" stop-color="#52545c"/></linearGradient><linearGradient id="Безымянный_градиент_8-2" x1="-1036.54" y1="-1237.01" x2="-1036.54" y2="-1239.61" xlink:href="#Безымянный_градиент_8"/><linearGradient id="Безымянный_градиент_8-3" x1="-1035.68" y1="-1237.48" x2="-1037.3" y2="-1238.85" xlink:href="#Безымянный_градиент_8"/><linearGradient id="Безымянный_градиент_8-4" x1="-1035.51" y1="-1235.22" x2="-1037.88" y2="-1236.59" xlink:href="#Безымянный_градиент_8"/><linearGradient id="Безымянный_градиент_8-5" x1="-1037.37" y1="-1240.88" x2="-1037.37" y2="-1236.76" xlink:href="#Безымянный_градиент_8"/><linearGradient id="Безымянный_градиент_8-6" x1="-1035.71" y1="-1240.88" x2="-1035.71" y2="-1236.76" xlink:href="#Безымянный_градиент_8"/><linearGradient id="Безымянный_градиент_8-7" x1="-1035.66" y1="-1240.91" x2="-1035.66" y2="-1234.03" xlink:href="#Безымянный_градиент_8"/><linearGradient id="Безымянный_градиент_8-8" x1="-1037.42" y1="-1240.91" x2="-1037.42" y2="-1234.03" xlink:href="#Безымянный_градиент_8"/><linearGradient id="Безымянный_градиент_11" x1="-1036.54" y1="-1240.88" x2="-1036.54" y2="-1232.46" gradientTransform="translate(9216.69 10962.22) scale(8.82)" gradientUnits="userSpaceOnUse"><stop offset="0" stop-color="#f0f3f5"/><stop offset="0.25" stop-color="#edf0f3"/><stop offset="0.41" stop-color="#e5e8ea"/><stop offset="0.53" stop-color="#d7dadc"/><stop offset="0.64" stop-color="#c3c5c9"/><stop offset="0.74" stop-color="#a9abaf"/><stop offset="0.84" stop-color="#888b90"/><stop offset="0.93" stop-color="#63656b"/><stop offset="1" stop-color="#3d3f46"/></linearGradient><linearGradient id="Безымянный_градиент_11-2" x1="-1036.54" y1="-1240.88" x2="-1036.54" y2="-1232.46" xlink:href="#Безымянный_градиент_11"/><linearGradient id="Безымянный_градиент_11-3" x1="-1036.54" y1="-1240.88" x2="-1036.54" y2="-1232.46" xlink:href="#Безымянный_градиент_11"/><linearGradient id="Безымянный_градиент_12" x1="-1036.54" y1="-1239.13" x2="-1036.54" y2="-1236.73" gradientTransform="translate(9216.69 10962.22) scale(8.82)" gradientUnits="userSpaceOnUse"><stop offset="0" stop-color="#caced4"/><stop offset="1" stop-color="#52545c"/></linearGradient></defs><path d="M14.18,55.5c0,21,27.28,38.06,60.82,38.06s60.82-17.08,60.82-38.06S108.53,17.44,75,17.44,14.18,34.51,14.18,55.5Zm1.87,0c0-20,26.44-36.19,59-36.19S134,35.55,134,55.5,107.51,91.69,75,91.69,16.05,75.46,16.05,55.5Z"/><path d="M69.25,24.36C55,25.23,44.68,29,42.92,34a4.59,4.59,0,0,0,.43,4c2,3.37,8.11,6.15,16.84,7.64l.92.15.15-.93C62.7,36.14,65.84,29.26,69.89,26l2.3-1.84-2.94.18ZM45,37.07a3,3,0,0,1-.45-1.53,2.64,2.64,0,0,1,.17-.94c1.34-3.8,10.48-7.11,22.15-8.18-3.33,3.76-5.89,9.83-7.22,17.21C52,42.22,46.57,39.81,45,37.07Zm21.69,8.36-.18,1,1,.08c2.44.18,5,.28,7.5.28s5.06-.1,7.5-.28l1-.08-.18-1C81.94,37.55,78.82,32.84,75,32.84s-7,4.71-8.35,12.59ZM75,34.7c2.61,0,5,3.92,6.29,10-2.06.14-4.17.22-6.29.22s-4.23-.08-6.29-.22c1.26-6.1,3.68-10,6.29-10ZM80.1,26c4.05,3.25,7.2,10.12,8.63,18.85l.16.93.92-.15c8.73-1.49,14.87-4.27,16.83-7.64a4.62,4.62,0,0,0,.44-4c-1.76-5-12.1-8.75-26.33-9.62l-2.94-.18L80.1,26Zm3.07.4c11.67,1.07,20.81,4.39,22.15,8.18a2.64,2.64,0,0,1,.17.94,3,3,0,0,1-.45,1.53c-1.61,2.74-7.06,5.15-14.65,6.56-1.33-7.38-3.89-13.45-7.22-17.21ZM33.91,37.64c-6.4,5.36-9.78,11.72-9.78,18.41,0,15.74,19.19,29,44.63,30.93l2.84.21-2.16-1.84c-5.58-4.77-9-16.08-9-29.53l.06-3.18-.78-.15c-13.38-2.4-22.9-8-24.26-14.33l-.32-1.51-1.19,1ZM26,56.05c0-5.73,2.8-11.24,8-16C36.5,46.4,45.64,51.7,58.57,54.17c0,.73,0,1.65,0,1.65,0,12.47,3,23.23,7.83,29C43.19,82.39,26,70.28,26,56.05Zm39.89-1.68v.34c0,12.5,3.92,21.92,9.12,21.92s9.11-9.42,9.11-21.92V53.36l-1,.09c-2.64.23-5.37.34-8.1.34s-5.46-.11-8.09-.34l-1-.09v1Zm16.35,1C82.09,67,78.43,74.77,75,74.77S67.9,67,67.76,55.37c2.38.18,4.8.29,7.24.29S79.86,55.55,82.24,55.37Zm32.33-17.21c-1.35,6.3-10.87,11.93-24.25,14.33l-.78.14.06,3.19c0,13.44-3.46,24.76-9,29.53L78.4,87.19,81.24,87c25.44-1.89,44.63-15.19,44.63-30.93,0-6.69-3.39-13-9.79-18.41l-1.18-1-.33,1.51ZM116,40c5.25,4.78,8,10.29,8,16,0,14.23-17.19,26.34-40.37,28.81,4.88-5.81,7.83-16.57,7.83-29,0,0,0-.92,0-1.65C104.35,51.7,113.5,46.4,116,40Z"/><path class="cls-1" d="M115.23,33.36a5.5,5.5,0,0,1,.23.72,7.1,7.1,0,0,1-.18,4.11c6.07,5,9.65,11.17,9.65,17.86,0,16.7-22.36,30.23-49.93,30.23S25.07,72.75,25.07,56.05c0-6.68,3.58-12.86,9.64-17.86a7.18,7.18,0,0,1-.17-4.11,3.94,3.94,0,0,1,.29-.77c-8.28,5.9-13.3,13.63-13.3,22.1C21.53,73.9,45.46,88.89,75,88.89s53.47-15,53.47-33.48c0-8.45-5-16.17-13.24-22Z"/><path class="cls-2" d="M82.43,45.6c-2.36.17-4.84.27-7.43.27s-5.07-.1-7.43-.27h0L66,46.71c2.84.25,5.85.39,9,.39s6.13-.14,9-.39L82.43,45.6Zm27.31-11.73C107.87,27.66,92.39,23.11,75,23.11S42.14,27.66,40.26,33.87c-1.63,5.38,7.26,10.36,21.3,12.33l-1.22-1.48c-11.35-1.93-18.1-6-16.54-10.43C45.68,29,59.38,25.12,75,25.12s29.32,3.85,31.2,9.17c1.56,4.38-5.19,8.5-16.54,10.43L88.44,46.2c14-2,22.93-7,21.3-12.33Z"/><path class="cls-3" d="M67.59,45.6c1.3-7.25,4.13-11.77,7.41-11.77s6.11,4.52,7.41,11.77h0L84,46.7C82.67,37.14,79.15,31,75,31s-7.67,6.11-9,15.67l1.52-1.1Z"/><path class="cls-4" d="M84.42,52.12l-1.24,2.26v.5c0,12-3.67,21.1-8.18,21.1s-8.18-9.1-8.18-21.1v-.56l-1.24-2.2c0,.92-.06,1.83-.06,2.75,0,13.61,4.24,23.91,9.48,23.91s9.48-10.3,9.48-23.91c0-.92,0-1.83-.06-2.75Z"/><path class="cls-5" d="M61.58,46.21C63.37,32.92,68.7,23.1,75,23.1c-6.75,0-12.51,8.7-14.64,21.65l1.2,1.46Z"/><path class="cls-6" d="M88.43,46.21h0l1.2-1.46C87.51,31.8,81.75,23.1,75,23.1,81.3,23.11,86.63,32.92,88.43,46.21Z"/><path class="cls-7" d="M90.48,53.4,89,51.57h0c.08,1.45.13,2.93.13,4.43,0,18.16-6.3,32.89-14.07,32.89,8.71,0,15.53-13.66,15.53-32.89C90.53,55.12,90.51,54.25,90.48,53.4Z"/><path class="cls-8" d="M60.93,56c0-1.5,0-3,.14-4.43h0l-1.54,1.82c0,.87-.05,1.74-.05,2.61,0,19.23,6.82,32.89,15.53,32.89-7.77,0-14.07-14.73-14.07-32.89Z"/><path class="cls-9" d="M115.28,38.19a30.73,30.73,0,0,1,5.81,6.22A21.41,21.41,0,0,0,117,34.69c-.58-.46-1.17-.9-1.78-1.33a5.5,5.5,0,0,1,.23.72,7.1,7.1,0,0,1-.18,4.11Zm-80.57,0a7.19,7.19,0,0,1-.17-4.11,3.94,3.94,0,0,1,.29-.77c-.62.45-1.24.91-1.84,1.38a21.41,21.41,0,0,0-4.08,9.72,30.67,30.67,0,0,1,5.8-6.22Z"/><path class="cls-10" d="M15.11,55.5C15.11,35,41.92,18.38,75,18.38S134.88,35,134.88,55.5,108.07,92.62,75,92.62,15.11,76,15.11,55.5ZM75,88.89c29.53,0,53.47-15,53.47-33.48S104.53,21.92,75,21.92s-53.48,15-53.48,33.49S45.47,88.89,75,88.89Z"/><path class="cls-11" d="M60.93,56c0-18,6.3-32.89,14.07-32.89S89.07,38,89.07,56c0,18.16-6.3,32.89-14.07,32.89S60.93,74.16,60.93,56ZM75,78.78c5.24,0,9.48-10.3,9.48-23.91C84.48,40.76,80.24,31,75,31s-9.48,9.73-9.48,23.84C65.52,68.48,69.76,78.78,75,78.78Z"/><path class="cls-12" d="M34.54,34.08c1.54-6.11,20.21-15,40.46-15s38.27,6.36,40.46,15C117.91,43.77,99.92,52.55,75,52.55S32.09,43.77,34.54,34.08ZM75,23.11c-17.39,0-32.86,4.55-34.74,10.76C38.16,40.82,53.6,47.1,75,47.1s36.84-6.29,34.74-13.23C107.87,27.66,92.39,23.11,75,23.11Z"/><path class="cls-13" d="M65.56,52.1h0l1.28,2.27c2.62.22,5.34.35,8.15.35s5.55-.13,8.18-.36l1.25-2.26h0c-3,.29-6.16.45-9.44.45s-6.3-.15-9.44-.45Zm50.11-15.93c-.32,6.94-11,13.08-26.73,15.39h0l1.53,1.83c15.42-2.77,25.56-9.57,25.19-17.23Zm-81.34,0C34,43.84,44.1,50.63,59.51,53.4l1.54-1.83h0C45.3,49.25,34.65,43.11,34.33,36.17Z"/></svg>